<svg version="1.1" id="Layer_1" xmlns="http://www.w3.org/2000/svg" xmlns:xlink="http://www.w3.org/1999/xlink" x="0px" y="0px"
	 width="100%" viewBox="0 0 419 378" enable-background="new 0 0 419 378" xml:space="preserve">
<path fill="#000101" opacity="1.000000" stroke="none" 
	d="
M214.000000,379.000000 
	C142.688889,379.000000 71.877762,379.000000 1.033324,379.000000 
	C1.033324,253.061737 1.033324,127.123474 1.033324,1.092602 
	C140.561066,1.092602 280.122223,1.092602 419.841675,1.092602 
	C419.841675,126.999847 419.841675,252.999908 419.841675,379.000000 
	C351.456879,379.000000 282.978455,379.000000 214.000000,379.000000 
M249.058777,176.116898 
	C249.058777,176.116898 249.087097,176.229935 248.425995,176.267456 
	C247.652756,176.685593 246.879517,177.103729 245.391068,177.580521 
	C242.096558,178.732086 238.550262,179.439575 235.563187,181.133316 
	C230.326782,184.102478 225.433289,187.676376 219.809616,191.384995 
	C217.973404,194.868149 215.723297,198.213699 214.497726,201.899887 
	C213.982956,203.448151 215.635727,205.717087 216.303131,207.658401 
	C217.865067,206.508270 219.873993,205.660797 220.898987,204.147079 
	C223.277573,200.634338 225.180969,196.799835 227.925858,192.904770 
	C231.557236,191.012772 235.128036,188.991241 238.833740,187.258209 
	C244.857452,184.441162 250.969452,181.812866 257.711273,178.952026 
	C260.157074,175.662064 262.602844,172.372101 265.741486,168.474258 
	C266.206238,168.077072 266.670990,167.679886 267.317383,168.244614 
	C268.673126,177.165802 270.028839,186.086990 271.115387,195.800888 
	C270.756683,199.535660 270.397949,203.270432 269.660370,207.612747 
	C268.206635,211.744934 266.752899,215.877136 264.809357,220.527527 
	C261.572571,225.357559 258.335785,230.187607 254.505234,235.335831 
	C251.046188,238.763855 247.587143,242.191879 243.503723,245.765259 
	C237.228333,250.120636 230.952942,254.476028 223.988800,258.940491 
	C204.111664,268.779602 211.152161,268.355103 192.197418,259.327301 
	C192.048370,259.256287 191.907883,259.167297 191.261353,258.679993 
	C187.360886,256.045013 183.460419,253.410034 179.155670,250.215546 
	C174.485519,246.462067 169.815384,242.708603 165.068161,238.272095 
	C162.165070,234.810501 159.261978,231.348907 156.210602,227.165451 
	C154.202881,223.671844 152.195160,220.178238 150.129852,215.941376 
	C149.141541,212.977463 148.153229,210.013535 147.321045,206.231216 
	C146.847473,199.506104 146.373886,192.780991 146.160034,185.318039 
	C146.329803,183.511688 146.499557,181.705353 146.989243,179.626236 
	C146.972260,179.097031 146.955292,178.567810 147.260025,177.338882 
	C148.098480,174.010895 148.936920,170.682922 150.444214,167.020889 
	C150.674484,166.925354 150.904770,166.829834 151.248764,167.566132 
	C151.719376,168.544693 152.189972,169.523254 152.792664,171.165100 
	C154.802307,173.611755 156.811951,176.058395 159.181091,179.048706 
	C167.124725,182.365448 175.068344,185.682190 183.556137,189.400452 
	C192.258728,192.561905 194.656738,200.833923 198.526810,209.596420 
	C200.294479,207.152893 202.232849,205.698318 202.112808,204.440140 
	C201.346451,196.406967 198.267166,189.585754 190.123184,185.199310 
	C182.503845,182.101974 174.884491,179.004639 167.202332,175.133224 
	C167.154190,174.107468 167.106064,173.081696 167.283783,171.499435 
	C167.545639,170.616608 167.807495,169.733795 168.457764,168.277298 
	C168.488403,167.820694 168.519043,167.364105 168.972824,166.220566 
	C168.552261,160.180008 168.131714,154.139435 167.679520,147.371582 
	C165.708847,143.605881 163.738174,139.840179 161.612839,135.432343 
	C158.233261,132.271347 154.966278,128.976395 151.428909,126.003120 
	C149.520782,124.399261 146.711731,122.789803 145.167892,125.979797 
	C144.582611,127.189140 146.145096,130.021164 147.459305,131.433807 
	C149.583771,133.717346 152.312347,135.438904 155.162628,137.950928 
	C157.069504,141.271744 158.976395,144.592575 160.795883,148.609100 
	C161.329361,150.376892 161.862839,152.144684 162.326492,154.579468 
	C162.430435,155.010925 162.534363,155.442398 162.351242,156.733627 
	C162.434708,158.529709 162.518188,160.325775 162.378769,162.751984 
	C162.383484,163.194794 162.388199,163.637589 162.021271,164.677200 
	C160.853424,165.776779 162.920380,171.037598 158.158859,167.263184 
	C158.158859,167.263184 157.882706,167.027313 157.814590,166.423172 
	C156.168243,166.242340 154.521881,166.061508 152.998779,166.000000 
	C152.998779,166.000000 152.878632,165.877869 151.863861,166.366440 
	C151.546280,166.566635 151.228683,166.766815 150.822174,166.359344 
	C150.691177,165.977890 150.560181,165.596436 150.832687,164.530930 
	C152.309540,160.844131 154.080307,157.237076 155.113174,153.429840 
	C155.505737,151.982712 154.201630,150.075317 153.670807,148.377701 
	C152.091827,149.145737 149.472504,149.576904 149.097595,150.734802 
	C145.951935,160.450043 143.218002,170.298584 140.042999,180.380798 
	C140.060898,180.903900 140.078781,181.427017 139.803741,182.716080 
	C139.661514,185.183563 139.519287,187.651031 139.060410,190.777557 
	C139.530411,195.889191 140.000412,201.000824 140.441147,206.753220 
	C140.579361,207.154938 140.717575,207.556641 140.650650,208.420609 
	C140.920181,209.196442 141.189713,209.972260 141.531738,211.474777 
	C142.524689,213.987564 143.517654,216.500366 144.571976,219.702896 
	C146.319748,222.929352 148.067520,226.155823 150.116638,229.995270 
	C152.720947,233.340042 155.325241,236.684799 158.143616,240.667358 
	C162.417328,244.474396 166.691040,248.281433 171.241653,252.682053 
	C175.459930,255.533859 179.678223,258.385651 184.302963,261.768402 
	C191.167191,265.399780 197.989838,269.114014 204.928436,272.597290 
	C206.436386,273.354309 208.799179,274.110657 210.021225,273.461334 
	C218.512527,268.949707 226.806686,264.067047 235.908325,259.307617 
	C240.721451,255.774643 245.534561,252.241653 250.986481,248.420975 
	C254.741333,244.086166 258.496185,239.751343 262.952881,235.353561 
	C265.835266,230.644379 268.717651,225.935181 272.065430,220.779541 
	C273.419922,216.528305 274.774414,212.277069 276.570831,207.257523 
	C276.955963,203.506897 277.341095,199.756271 277.978943,195.103104 
	C278.388214,179.720261 274.688568,165.243515 268.038666,151.497681 
	C267.328491,150.029663 265.116211,149.288315 263.600739,148.209869 
	C263.055267,150.188538 261.697998,152.369522 262.130341,154.104553 
	C263.083374,157.929306 264.938934,161.529160 265.667236,165.436996 
	C263.727386,165.578812 261.787506,165.720612 259.980652,165.954666 
	C259.980652,165.954666 259.866913,165.839386 259.328156,166.063980 
	C259.052002,166.766571 258.775848,167.469162 258.268036,168.367996 
	C258.268036,168.367996 258.239471,168.670288 257.646698,168.965317 
	C257.035797,169.198853 256.424927,169.432373 255.675217,168.789444 
	C255.477264,168.233215 255.279327,167.677002 255.244781,166.291473 
	C255.266403,161.161285 255.288025,156.031113 255.699036,150.237808 
	C257.162689,146.836487 258.626373,143.435181 260.685272,139.756500 
	C264.030548,136.775421 267.520630,133.935349 270.638916,130.733200 
	C271.665680,129.678818 271.730682,127.687820 272.235443,126.125107 
	C270.513580,125.767693 268.352325,124.566391 267.144073,125.195465 
	C261.152191,128.315079 256.265778,132.756607 252.816422,139.541321 
	C251.658508,142.393814 250.500610,145.246307 248.976578,148.509064 
	C248.969620,149.039886 248.962662,149.570709 248.612961,150.815277 
	C248.500870,151.855042 248.388779,152.894806 247.951019,154.674805 
	C248.047577,158.100113 248.144135,161.525436 248.176834,165.755325 
	C248.395538,166.799530 248.614243,167.843735 248.661026,169.416229 
	C248.858124,169.918930 249.055237,170.421646 249.287888,171.709808 
	C249.550980,172.448242 249.814087,173.186691 249.793060,174.656067 
	C249.586227,175.134598 249.379395,175.613129 249.058777,176.116898 
M222.761902,171.889206 
	C222.924973,169.571823 223.088043,167.254440 223.429199,164.472443 
	C223.490707,164.128098 223.426758,163.808914 223.822495,162.954193 
	C224.556152,162.947937 225.289825,162.941696 226.180939,163.522980 
	C226.555695,163.995911 226.930466,164.468842 227.375122,165.512436 
	C227.859650,166.074814 228.344193,166.637192 228.912369,167.092606 
	C228.912369,167.092606 228.795746,167.162155 228.925095,167.890030 
	C230.172653,170.466125 231.694077,173.192429 234.993195,171.911118 
	C236.013046,171.515015 236.071228,168.642807 236.769135,166.025909 
	C236.723557,163.012695 236.677979,159.999496 236.902481,156.225220 
	C236.817490,155.167023 236.732498,154.108810 236.688995,152.314529 
	C235.222061,151.844971 233.755127,151.375427 231.931244,150.791626 
	C231.678146,154.753967 231.486542,157.753479 231.220245,161.922379 
	C229.349030,159.906738 228.289581,158.765518 227.059219,156.959641 
	C224.889389,153.773773 223.660736,148.871414 217.203644,152.002670 
	C216.383347,152.047699 215.563065,152.092743 213.997925,151.968033 
	C206.472427,149.947250 202.859100,151.845642 202.557404,158.571350 
	C203.963394,159.839386 205.365479,161.111816 206.776520,162.374207 
	C208.157837,163.609985 209.548279,164.835556 210.236176,166.470978 
	C208.812820,166.452927 207.164062,166.895645 206.008392,166.330368 
	C202.553238,164.640274 201.221100,165.887512 200.816437,169.190369 
	C206.988083,173.465378 211.405884,173.280884 216.458435,169.032944 
	C217.318146,169.994110 218.177856,170.955276 219.783905,172.039932 
	C220.534241,172.000229 221.284592,171.960526 222.761902,171.889206 
M211.133011,238.266235 
	C210.309082,239.042923 209.485153,239.819626 208.669540,240.588470 
	C205.996155,238.375458 203.483719,236.295685 200.578049,233.647842 
	C197.626022,231.976486 194.673981,230.305115 191.252762,228.102814 
	C184.207367,224.397125 177.161972,220.691437 170.016281,216.294952 
	C168.720352,214.792404 167.625275,213.011063 166.059540,211.882935 
	C164.972321,211.099579 163.237671,211.214828 161.792267,210.928619 
	C161.715576,212.427979 161.063187,214.259796 161.693314,215.350967 
	C162.709625,217.110931 164.570969,218.382889 166.480423,220.406494 
	C172.329895,223.760880 178.179382,227.115280 184.574371,230.956650 
	C189.714279,233.958817 194.854172,236.960968 200.279617,240.572876 
	C201.620926,242.390884 202.962250,244.208893 204.478210,246.639267 
	C204.911377,247.585922 205.344559,248.532593 205.770340,250.007385 
	C206.104202,250.383331 206.438065,250.759277 206.944138,251.632812 
	C207.975159,251.438797 209.006180,251.244781 210.635101,250.690216 
	C212.424149,247.460602 214.213196,244.230972 216.642899,240.757294 
	C220.723297,237.988251 224.803696,235.219208 229.564438,232.379440 
	C235.380081,229.258575 241.195740,226.137726 247.674728,222.870026 
	C250.209412,220.488434 252.955307,218.282562 255.162964,215.628922 
	C255.924942,214.713013 255.347214,212.682526 255.381470,211.161194 
	C253.788712,211.456818 251.829330,211.266068 250.671539,212.138763 
	C247.123230,214.813248 243.882538,217.895859 239.922363,221.177429 
	C238.414764,222.074295 236.955093,223.066925 235.390564,223.850037 
	C230.740021,226.177765 226.048248,228.423111 220.711914,230.787735 
	C217.758743,233.158051 214.805573,235.528381 211.932144,237.929947 
	C211.932144,237.929947 211.894699,237.852951 211.133011,238.266235 
M322.615295,162.502640 
	C320.590973,165.274338 318.566620,168.046036 316.014526,171.212814 
	C314.045685,172.319000 312.076843,173.425201 309.550964,174.462936 
	C309.047302,174.691101 308.543640,174.919266 307.363464,175.170746 
	C306.947998,175.335922 306.532501,175.501099 305.307648,175.577133 
	C304.496460,175.614471 303.685272,175.651794 302.145844,175.347870 
	C298.568909,174.148788 294.991974,172.949722 291.098114,171.234589 
	C290.372375,170.913101 289.646637,170.591614 288.662231,169.970825 
	C288.662231,169.970825 288.289001,169.839661 288.003906,169.194138 
	C286.997375,168.355530 286.092407,167.033890 284.959625,166.795639 
	C283.401123,166.467880 281.670288,166.959641 280.013275,167.100311 
	C280.338684,168.742325 280.664093,170.384338 281.344269,172.604095 
	C295.118683,184.144699 310.630066,185.363342 327.436279,181.086624 
	C325.903137,182.925537 324.369995,184.764465 322.201813,186.973618 
	C318.269135,188.648529 314.470337,191.010834 310.367096,191.810272 
	C306.029053,192.655457 301.400970,192.012177 296.613556,191.805496 
	C296.195282,191.807358 295.776978,191.809235 294.966248,191.167587 
	C294.031555,190.411224 293.096832,189.654861 291.889496,188.273911 
	C290.962982,187.325394 290.191833,185.912857 289.073151,185.538300 
	C287.438995,184.991135 285.555328,185.189209 283.778015,185.069626 
	C283.842743,186.841431 283.560120,188.728790 284.097229,190.343445 
	C284.441528,191.378433 285.994720,192.011261 287.420532,193.373932 
	C290.816528,195.631989 294.212524,197.890045 298.082123,200.690643 
	C301.467133,201.934982 304.896790,203.074509 308.210938,204.485291 
	C309.252472,204.928665 309.983826,206.100677 310.105347,207.065460 
	C302.800507,210.354416 295.821625,210.584351 288.930664,205.656006 
	C287.522186,204.648666 284.075897,204.436600 283.014374,205.419312 
	C280.696106,207.565460 282.876556,209.435135 284.796906,210.976288 
	C295.063782,219.215897 307.672791,218.204163 320.722137,208.134506 
	C322.013306,206.223129 323.304443,204.311737 324.595581,202.400345 
	C322.509949,201.415436 320.381287,200.510147 318.354919,199.415527 
	C317.155731,198.767715 316.118195,197.820679 315.756470,197.025696 
	C319.469879,194.897186 323.183289,192.768677 327.477173,190.308121 
	C329.947937,187.851654 332.418701,185.395187 335.441772,182.551727 
	C336.731812,179.928329 338.021851,177.304916 339.803040,174.238190 
	C340.919098,170.792282 340.634277,168.384842 335.334320,169.208130 
	C332.205475,170.778244 329.076660,172.348343 325.305359,173.225845 
	C326.798004,169.471283 328.290649,165.716721 330.192108,161.282822 
	C330.564056,157.516327 330.936005,153.749847 331.543396,149.177597 
	C330.984589,145.230057 330.678192,141.221039 329.738953,137.366211 
	C329.378601,135.887344 327.769226,134.116104 326.362335,133.690552 
	C325.359344,133.387192 323.566925,134.917145 322.434998,135.962646 
	C319.053986,139.085541 315.824738,142.372696 311.795166,144.967621 
	C311.540985,144.766998 311.286835,144.566376 311.098938,143.626694 
	C311.697845,141.751129 312.296753,139.875565 313.322540,137.358536 
	C316.641846,124.403633 312.874115,113.049896 305.264923,102.671356 
	C304.320984,101.383858 301.927551,99.748230 301.048248,100.144302 
	C299.614990,100.789871 298.203033,102.874992 297.951080,104.530579 
	C295.936615,117.766724 289.454224,127.800148 276.754517,134.241333 
	C274.238373,135.051590 271.532471,135.524673 269.275238,136.794968 
	C267.857117,137.593033 267.112183,139.587326 266.065216,141.044952 
	C267.641510,141.826096 269.511963,143.582855 270.741028,143.212296 
	C275.070831,141.906921 279.180542,139.871521 283.978149,137.790421 
	C293.771332,132.577194 299.425964,123.916428 303.476379,113.224976 
	C308.672363,121.015747 307.520294,128.728149 306.167969,136.916321 
	C303.817352,140.957458 301.466736,144.998596 298.524261,149.360062 
	C297.006042,150.256775 295.487823,151.153503 293.632080,151.793289 
	C293.098755,151.878342 292.565399,151.963394 291.245850,151.834549 
	C287.075165,151.105133 282.904449,150.375732 278.312592,149.179291 
	C277.528625,148.939392 276.744690,148.699493 275.255890,148.139359 
	C273.832977,149.136261 272.410095,150.133163 270.987183,151.130051 
	C272.251740,152.440964 273.278992,154.396439 274.817657,154.962967 
	C289.996185,160.551758 304.594818,160.227478 318.699615,149.780289 
	C320.263458,148.565109 321.827332,147.349930 323.868073,145.764175 
	C324.355621,148.178146 324.643158,149.601791 324.709229,151.802887 
	C324.166290,155.203644 323.623352,158.604416 322.615295,162.502640 
M94.393883,162.241470 
	C93.591217,158.162338 92.788559,154.083206 92.247047,149.339493 
	C92.567230,148.231125 92.887421,147.122757 93.316414,145.637741 
	C95.152534,147.090118 96.510345,148.164154 98.189453,149.843796 
	C98.761147,150.126358 99.391113,150.330048 99.896027,150.703018 
	C112.995407,160.378815 127.165230,160.266052 141.761185,155.062057 
	C143.257919,154.528412 144.200058,152.439316 145.632294,150.619705 
	C145.107239,150.043732 144.582169,149.467743 143.545776,148.387756 
	C141.730316,148.781433 139.914871,149.175125 137.544235,149.527206 
	C137.054153,149.772507 136.564056,150.017807 135.271713,150.318192 
	C132.880463,150.822205 130.489197,151.326202 127.220421,151.612854 
	C125.110260,151.665543 123.000099,151.718231 120.449875,151.276672 
	C119.939751,150.861588 119.429626,150.446503 118.717010,149.385086 
	C116.067459,145.281601 113.417908,141.178116 110.700531,136.364838 
	C110.503479,135.935425 110.306427,135.506027 110.260948,134.473755 
	C110.038612,133.697220 109.816284,132.920685 109.652390,131.210068 
	C109.860046,127.300583 110.067696,123.391090 110.712044,119.107796 
	C110.861328,118.382072 111.010612,117.656357 111.608177,116.316765 
	C112.221931,115.522125 112.835686,114.727478 113.350334,114.061142 
	C116.190102,118.924911 118.272575,123.917610 121.588722,127.877068 
	C128.680466,136.344528 136.997498,143.208832 149.623642,143.043137 
	C149.832703,141.535934 150.041763,140.028748 150.120911,138.159637 
	C149.969833,137.931519 149.759140,137.796341 149.158508,137.252090 
	C148.412048,137.057129 147.665573,136.862183 146.317703,136.326172 
	C145.863358,136.270340 145.409027,136.214508 144.537796,135.788834 
	C144.004242,135.683624 143.470688,135.578400 142.313080,135.092438 
	C137.054367,131.197067 130.588348,128.194489 126.867012,123.162239 
	C122.925629,117.832405 121.662903,110.544617 119.073013,104.175926 
	C118.446739,102.635887 117.410187,100.480789 116.182991,100.185646 
	C114.941383,99.887039 112.573807,101.160522 111.841263,102.413116 
	C109.192856,106.941650 107.024879,111.751152 104.298737,116.747345 
	C104.207840,117.487907 104.116943,118.228470 103.736160,119.506058 
	C103.657837,120.104935 103.579514,120.703819 103.131653,121.641037 
	C103.072556,122.423943 103.013458,123.206841 102.673241,124.862343 
	C102.803040,127.587318 102.932838,130.312286 102.818779,133.383286 
	C102.978554,133.888962 103.138329,134.394623 103.284073,135.608917 
	C103.457428,136.044464 103.630783,136.479996 103.719421,137.669617 
	C104.099113,140.171265 104.478806,142.672928 104.291069,145.580765 
	C103.841400,145.463898 103.391731,145.347031 102.607826,144.633865 
	C99.648468,141.439102 96.689110,138.244324 93.516815,134.451508 
	C91.881310,134.569534 90.245811,134.687561 88.189316,135.061447 
	C88.019226,135.508987 87.849136,135.956528 87.283791,136.707520 
	C87.162964,137.479996 87.042137,138.252472 86.641457,139.661011 
	C86.547234,140.806488 86.453018,141.951981 86.009750,143.574493 
	C85.961884,144.731094 85.914017,145.887695 85.651955,147.767624 
	C85.701538,148.511902 85.751129,149.256165 85.546265,150.872513 
	C86.181358,154.974136 86.816452,159.075745 87.491158,163.948334 
	C88.671379,166.247070 89.970070,168.495972 90.969398,170.870819 
	C91.333244,171.735504 90.983902,172.900284 90.403839,173.485535 
	C89.497452,173.218719 88.591064,172.951920 87.213867,172.135635 
	C85.469902,171.278915 83.725945,170.422180 81.694191,169.271271 
	C81.694191,169.271271 81.282791,169.261002 80.890732,168.875443 
	C76.371529,168.875473 75.679237,170.982651 77.783897,175.284378 
	C79.276703,177.850418 80.769508,180.416443 82.387047,183.627106 
	C84.879097,186.173782 87.371147,188.720444 90.242676,191.843246 
	C94.363617,193.607849 98.484558,195.372467 102.835350,197.896271 
	C100.940598,198.495972 98.970955,198.930222 97.173126,199.744049 
	C95.525536,200.489868 94.063393,201.645355 92.519539,202.620346 
	C93.498146,204.154938 94.476753,205.689514 95.792709,207.835236 
	C100.540451,210.440613 105.028473,213.871262 110.094414,215.465500 
	C118.517578,218.116272 126.539078,216.071564 133.162018,210.058411 
	C134.141602,209.169006 133.935242,206.973389 134.277573,205.382126 
	C132.659317,205.120712 131.013382,204.560410 129.432892,204.706757 
	C128.439270,204.798767 127.564026,205.980988 126.601013,206.622025 
	C120.050453,210.982468 110.353935,210.275848 105.957069,205.052795 
	C110.081818,203.610794 114.206566,202.168793 119.053864,200.591858 
	C123.362724,197.364548 127.671585,194.137253 132.585724,190.696976 
	C132.740448,188.733978 132.895187,186.770966 133.049911,184.807968 
	C131.175919,185.187668 129.113358,185.205002 127.483177,186.053253 
	C125.978088,186.836411 124.936729,188.510742 123.052254,190.124588 
	C121.619804,190.740799 120.211945,191.809998 118.750343,191.889343 
	C114.136902,192.139801 109.503319,192.019363 104.462257,191.772919 
	C103.956902,191.444931 103.451546,191.116959 102.427643,190.305298 
	C101.503548,190.121780 100.579453,189.938263 99.184189,189.221588 
	C95.913132,186.204834 92.642067,183.188065 90.036758,180.821640 
	C105.662651,184.705460 120.612663,184.344696 134.613083,173.672668 
	C136.818405,172.078415 139.380569,170.256531 137.050827,167.346191 
	C134.841537,164.586334 132.353867,166.267456 130.206909,168.075806 
	C128.707138,169.339020 127.160507,170.546585 124.958954,171.967041 
	C122.995567,172.799240 121.032173,173.631424 118.516945,174.412735 
	C118.022324,174.644379 117.527695,174.876022 116.265274,175.085419 
	C115.539970,175.306564 114.814667,175.527710 113.298409,175.630661 
	C112.501007,175.659119 111.703598,175.687576 110.320274,175.349503 
	C109.866417,175.293228 109.412560,175.236938 108.520973,174.842392 
	C107.985840,174.751358 107.450714,174.660324 106.293251,174.154526 
	C104.223885,173.101257 102.154518,172.047989 99.986351,170.307571 
	C98.144920,167.868896 96.303490,165.430222 94.393883,162.241470 
M178.992477,160.691895 
	C179.138382,167.113083 182.317459,171.241928 187.730225,172.040115 
	C193.166763,172.841797 197.275467,170.296906 199.469498,164.401886 
	C198.708282,162.947189 198.017120,160.308701 197.172791,160.258728 
	C194.591797,160.106003 191.951904,160.948730 189.334915,161.404205 
	C190.663208,162.615479 192.008972,163.808701 193.300095,165.058380 
	C193.484558,165.236923 193.404587,165.688690 192.689621,166.263824 
	C187.075836,167.604538 185.698013,166.595169 184.379456,159.196335 
	C186.558685,156.109573 188.871826,153.977600 193.048233,156.378830 
	C194.060059,156.960571 196.027725,155.879837 198.628296,155.341599 
	C193.986298,151.097961 190.074692,150.128571 185.847061,151.735901 
	C182.127151,153.150223 179.135651,155.497528 178.992477,160.691895 
M197.555099,210.495209 
	C193.253693,208.220062 188.952286,205.944916 184.154022,203.155548 
	C176.235306,199.044937 168.316605,194.934341 160.023773,190.220490 
	C158.894958,188.604645 158.015106,186.696609 156.563385,185.459763 
	C155.258896,184.348328 153.326340,183.973999 151.670807,183.274536 
	C151.155960,184.976898 150.130646,186.726196 150.281525,188.367371 
	C150.411346,189.779373 151.883072,191.068008 153.068192,192.982376 
	C160.665482,197.428070 168.262772,201.873764 176.324066,206.802414 
	C181.794525,209.572922 187.264984,212.343430 193.107727,215.678101 
	C194.985519,216.938278 196.863312,218.198441 199.051102,220.039673 
	C200.845825,222.532028 202.546295,225.100357 204.471069,227.487869 
	C205.602341,228.891144 207.313339,231.181152 208.365967,230.981003 
	C210.005051,230.669388 211.429825,228.684662 212.701050,227.199783 
	C213.404037,226.378632 213.609665,225.131714 214.565720,223.848038 
	C214.963211,223.207275 215.360687,222.566513 216.329483,221.667145 
	C216.861633,221.036438 217.393784,220.405731 218.559128,219.549225 
	C223.369476,216.356384 228.179825,213.163559 233.725464,210.098450 
	C241.191010,206.155243 248.656555,202.212051 256.853027,198.226578 
	C260.186890,194.783463 263.686981,191.475739 266.702332,187.773224 
	C267.249146,187.101807 265.810425,184.813354 265.288330,183.271408 
	C263.739716,183.840012 261.865265,184.034622 260.703339,185.047043 
	C257.157379,188.136719 253.885834,191.541336 249.917648,195.171127 
	C247.837036,196.387741 245.830261,197.759613 243.661514,198.790833 
	C237.941772,201.510483 232.151733,204.082260 225.727402,206.822418 
	C221.062027,210.179367 216.396652,213.536316 211.009918,217.247513 
	C207.769547,221.635345 206.489929,216.709641 204.101807,215.217239 
	C202.060410,213.832916 200.018997,212.448608 197.555099,210.495209 
M180.255920,133.160034 
	C179.425613,133.218246 178.589371,133.232300 177.766052,133.342651 
	C174.834000,133.735596 171.072525,133.568283 171.479446,137.904724 
	C171.869858,142.065201 175.536652,141.788788 178.496536,141.496719 
	C187.078842,140.649841 195.111298,138.185333 202.641205,132.532684 
	C204.617432,130.890869 206.593674,129.249069 208.506561,127.659897 
	C210.856613,129.474442 212.804184,130.978241 215.119766,133.012207 
	C222.259293,138.204727 230.210587,141.094345 239.053970,141.476715 
	C241.969543,141.602768 245.259644,141.694458 245.593338,137.956711 
	C245.968109,133.758957 242.362427,133.641434 239.376556,133.351242 
	C237.903915,133.208099 236.410095,133.282974 234.501678,132.930573 
	C233.983002,132.902557 233.464340,132.874542 232.343521,132.449554 
	C231.870193,132.394257 231.396866,132.338943 230.449768,131.870880 
	C229.280441,131.453247 228.111099,131.035599 226.493668,130.186035 
	C226.099213,130.073074 225.704758,129.960114 224.920807,129.294861 
	C220.847076,125.960213 216.524384,122.879768 212.778030,119.210846 
	C209.758163,116.253403 207.115845,115.626572 204.465591,119.002480 
	C199.369827,125.493454 192.770340,129.651627 184.375107,132.320496 
	C183.933624,132.516327 183.492142,132.712143 182.548111,132.743561 
	C182.061417,132.913971 181.574707,133.084381 180.255920,133.160034 
z"/>
<path fill="#5971DB" opacity="1.000000" stroke="none" 
	d="
M110.275345,119.481606 
	C110.067696,123.391090 109.860046,127.300583 109.478699,131.874680 
	C109.573135,133.385071 109.841255,134.230835 110.109375,135.076614 
	C110.306427,135.506027 110.503479,135.935425 110.554764,136.985718 
	C107.602745,141.938095 107.152443,141.890976 103.804138,136.915543 
	C103.630783,136.479996 103.457428,136.044464 103.424622,135.080414 
	C103.397659,134.047012 103.230148,133.542145 103.062637,133.037262 
	C102.932838,130.312286 102.803040,127.587318 103.022736,124.134438 
	C103.415215,122.705254 103.458206,122.003975 103.501190,121.302696 
	C103.579514,120.703819 103.657837,120.104935 104.089569,118.970230 
	C104.520500,117.774467 104.598022,117.114525 104.675537,116.454582 
	C107.024879,111.751152 109.192856,106.941650 111.841263,102.413116 
	C112.573807,101.160522 114.941383,99.887039 116.182991,100.185646 
	C117.410187,100.480789 118.446739,102.635887 119.073013,104.175926 
	C121.662903,110.544617 122.925629,117.832405 126.867012,123.162239 
	C130.588348,128.194489 137.054367,131.197067 142.698822,135.495514 
	C143.707947,135.985291 144.331314,136.071991 144.954681,136.158676 
	C145.409027,136.214508 145.863358,136.270340 146.793610,136.736755 
	C148.009277,137.349579 148.749054,137.551834 149.488815,137.754105 
	C149.759140,137.796341 149.969833,137.931519 150.073242,138.721558 
	C149.685471,140.554703 149.345383,141.825912 149.005295,143.097122 
	C136.997498,143.208832 128.680466,136.344528 121.588722,127.877068 
	C118.272575,123.917610 116.190102,118.924911 113.350334,114.061142 
	C112.835686,114.727478 112.221931,115.522125 111.161209,116.806854 
	C110.567940,118.025162 110.421646,118.753387 110.275345,119.481606 
z"/>
<path fill="#5971DB" opacity="1.000000" stroke="none" 
	d="
M277.555298,134.172943 
	C289.454224,127.800148 295.936615,117.766724 297.951080,104.530579 
	C298.203033,102.874992 299.614990,100.789871 301.048248,100.144302 
	C301.927551,99.748230 304.320984,101.383858 305.264923,102.671356 
	C312.874115,113.049896 316.641846,124.403633 312.687378,137.680588 
	C310.249084,137.469879 308.445953,136.937119 306.642853,136.404358 
	C307.520294,128.728149 308.672363,121.015747 303.476379,113.224976 
	C299.425964,123.916428 293.771332,132.577194 283.246948,137.886887 
	C280.862274,136.713211 279.208771,135.443085 277.555298,134.172943 
z"/>
<path fill="#38AEDA" opacity="1.000000" stroke="none" 
	d="
M291.415039,171.750641 
	C294.991974,172.949722 298.568909,174.148788 302.641571,175.734467 
	C304.130554,175.969452 305.123779,175.817871 306.117035,175.666275 
	C306.532501,175.501099 306.947998,175.335922 307.878082,175.290009 
	C308.964447,175.116638 309.536224,174.824005 310.108002,174.531372 
	C312.076843,173.425201 314.045685,172.319000 316.711853,171.054031 
	C319.420654,171.856125 321.401215,172.892426 323.460297,173.737350 
	C324.191162,174.037262 325.113098,173.871582 325.947815,173.918442 
	C329.076660,172.348343 332.205475,170.778244 335.953949,169.426392 
	C337.486359,171.323593 338.399139,173.002548 339.311890,174.681503 
	C338.021851,177.304916 336.731812,179.928329 334.850220,182.612793 
	C331.904205,181.889191 329.549713,181.104523 327.195221,180.319855 
	C310.630066,185.363342 295.118683,184.144699 281.184937,171.928131 
	C282.242920,164.590988 285.853333,170.235840 288.289001,169.839661 
	C288.289001,169.839661 288.662231,169.970825 288.917358,170.411530 
	C289.920013,171.151703 290.667511,171.451172 291.415039,171.750641 
z"/>
<path fill="#38B1DD" opacity="1.000000" stroke="none" 
	d="
M82.262321,182.982483 
	C80.769508,180.416443 79.276703,177.850418 77.859970,174.535095 
	C79.051628,172.277542 80.167213,170.769272 81.282791,169.261002 
	C81.282791,169.261002 81.694191,169.271271 82.000641,169.766586 
	C84.099617,171.069641 85.892143,171.877380 87.684669,172.685120 
	C88.591064,172.951920 89.497452,173.218719 90.892242,173.926300 
	C92.602592,174.053238 93.875061,173.864502 95.034637,173.396194 
	C96.760002,172.699387 98.405602,171.805023 100.085144,170.994751 
	C102.154518,172.047989 104.223885,173.101257 106.680099,174.572296 
	C107.697525,175.053589 108.328117,175.117126 108.958702,175.180664 
	C109.412560,175.236938 109.866417,175.293228 110.739990,175.749588 
	C112.136253,176.016068 113.112801,175.882462 114.089355,175.748840 
	C114.814667,175.527710 115.539970,175.306564 116.823593,175.237946 
	C117.944199,175.081528 118.506493,174.772568 119.068787,174.463623 
	C121.032173,173.631424 122.995567,172.799240 125.682022,171.878540 
	C129.126724,171.700745 133.159225,166.765320 133.945770,173.829788 
	C120.612663,184.344696 105.662651,184.705460 89.460709,180.552795 
	C86.677208,181.183472 84.469765,182.082977 82.262321,182.982483 
z"/>
<path fill="#1ED3D2" opacity="1.000000" stroke="none" 
	d="
M191.763397,259.086700 
	C191.907883,259.167297 192.048370,259.256287 192.197418,259.327301 
	C211.152161,268.355103 204.111664,268.779602 224.707947,258.878693 
	C226.925095,258.226807 228.448242,257.692749 229.915634,257.034393 
	C232.530457,255.861206 234.293015,256.514587 235.164062,259.303375 
	C226.806686,264.067047 218.512527,268.949707 210.021225,273.461334 
	C208.799179,274.110657 206.436386,273.354309 204.928436,272.597290 
	C197.989838,269.114014 191.167191,265.399780 184.145157,261.137817 
	C185.575027,254.535767 189.066422,258.985626 191.763397,259.086700 
z"/>
<path fill="#566DD3" opacity="1.000000" stroke="none" 
	d="
M266.426208,165.220795 
	C264.938934,161.529160 263.083374,157.929306 262.130341,154.104553 
	C261.697998,152.369522 263.055267,150.188538 263.600739,148.209869 
	C265.116211,149.288315 267.328491,150.029663 268.038666,151.497681 
	C274.688568,165.243515 278.388214,179.720261 277.496765,195.522705 
	C275.137909,195.630920 273.261230,195.319550 271.384583,195.008179 
	C270.028839,186.086990 268.673126,177.165802 267.197845,167.625916 
	C266.860931,166.411743 266.643555,165.816269 266.426208,165.220795 
z"/>
<path fill="#4C8EDD" opacity="1.000000" stroke="none" 
	d="
M118.919502,150.031418 
	C119.429626,150.446503 119.939751,150.861588 120.885063,151.766449 
	C123.579483,152.114227 125.838715,151.972214 128.097946,151.830200 
	C130.489197,151.326202 132.880463,150.822205 135.849808,150.417816 
	C136.985062,150.201218 137.542236,149.885010 138.099411,149.568817 
	C139.914871,149.175125 141.730316,148.781433 143.860291,148.968140 
	C144.583054,150.056351 144.991302,150.564163 145.399536,151.071991 
	C144.200058,152.439316 143.257919,154.528412 141.761185,155.062057 
	C127.165230,160.266052 112.995407,160.378815 99.896027,150.703018 
	C99.391113,150.330048 98.761147,150.126358 98.249954,149.292419 
	C99.854324,147.570740 101.398193,146.400452 102.942062,145.230164 
	C103.391731,145.347031 103.841400,145.463898 104.621704,145.359039 
	C104.952332,145.137329 104.906013,145.048904 104.754028,145.406586 
	C104.711784,145.998962 104.821526,146.233673 105.062004,146.759735 
	C106.682594,147.203812 109.246376,147.903885 109.491814,147.422333 
	C111.395012,143.688232 113.002777,145.085907 115.029930,147.216934 
	C116.114311,148.356888 117.609634,149.105942 118.919502,150.031418 
z"/>
<path fill="#4C8EDD" opacity="1.000000" stroke="none" 
	d="
M278.733765,149.646317 
	C282.904449,150.375732 287.075165,151.105133 291.804352,152.097321 
	C292.898438,152.256805 293.434021,152.153503 293.969604,152.050201 
	C295.487823,151.153503 297.006042,150.256775 299.152710,149.124390 
	C305.077850,148.507370 310.371368,148.030930 315.674896,147.852509 
	C316.426300,147.827240 317.226501,149.252670 318.004120,150.006653 
	C304.594818,160.227478 289.996185,160.551758 274.817657,154.962967 
	C273.278992,154.396439 272.251740,152.440964 270.987183,151.130051 
	C272.410095,150.133163 273.832977,149.136261 275.786255,148.572052 
	C277.122314,149.218613 277.928040,149.432465 278.733765,149.646317 
z"/>
<path fill="#5971DB" opacity="1.000000" stroke="none" 
	d="
M149.775360,167.354935 
	C148.936920,170.682922 148.098480,174.010895 146.925079,177.825302 
	C146.616531,178.840820 146.642929,179.369904 146.669312,179.899002 
	C146.499557,181.705353 146.329803,183.511688 145.812317,186.018585 
	C145.284988,188.661133 145.353821,190.670898 144.848373,192.524033 
	C144.431915,194.050934 143.335022,195.392242 142.539658,196.815811 
	C141.700714,195.527802 140.756012,194.293716 140.061920,192.931885 
	C139.635437,192.095108 139.592300,191.062943 139.377045,190.118515 
	C139.519287,187.651031 139.661514,185.183563 140.119598,182.197159 
	C140.410324,181.154480 140.385208,180.630737 140.360077,180.106979 
	C143.218002,170.298584 145.951935,160.450043 149.097595,150.734802 
	C149.472504,149.576904 152.091827,149.145737 153.670807,148.377701 
	C154.201630,150.075317 155.505737,151.982712 155.113174,153.429840 
	C154.080307,157.237076 152.309540,160.844131 150.478043,165.046783 
	C150.007385,166.160065 149.891388,166.757507 149.775360,167.354935 
z"/>
<path fill="#4D79D0" opacity="1.000000" stroke="none" 
	d="
M318.351868,149.893463 
	C317.226501,149.252670 316.426300,147.827240 315.674896,147.852509 
	C310.371368,148.030930 305.077850,148.507370 299.448669,148.964233 
	C301.466736,144.998596 303.817352,140.957458 306.405396,136.660339 
	C308.445953,136.937119 310.249084,137.469879 312.473938,138.001312 
	C312.296753,139.875565 311.697845,141.751129 310.877319,144.109528 
	C310.426910,144.813995 310.331177,145.082977 310.200745,145.609329 
	C310.085388,146.069748 310.137726,146.320175 310.190063,146.570587 
	C310.530365,146.456879 310.870636,146.343170 311.470398,146.225952 
	C311.998627,146.013535 312.267426,145.804611 312.536255,145.595703 
	C315.824738,142.372696 319.053986,139.085541 322.434998,135.962646 
	C323.566925,134.917145 325.359344,133.387192 326.362335,133.690552 
	C327.769226,134.116104 329.378601,135.887344 329.738953,137.366211 
	C330.678192,141.221039 330.984589,145.230057 331.121124,149.483582 
	C328.776123,150.201523 326.853394,150.613480 324.930664,151.025436 
	C324.643158,149.601791 324.355621,148.178146 323.868073,145.764175 
	C321.827332,147.349930 320.263458,148.565109 318.351868,149.893463 
z"/>
<path fill="#1BD5CE" opacity="1.000000" stroke="none" 
	d="
M105.176376,205.074799 
	C110.353935,210.275848 120.050453,210.982468 126.601013,206.622025 
	C127.564026,205.980988 128.439270,204.798767 129.432892,204.706757 
	C131.013382,204.560410 132.659317,205.120712 134.277573,205.382111 
	C133.935242,206.973389 134.141602,209.169006 133.162018,210.058411 
	C126.539078,216.071564 118.517578,218.116272 110.094414,215.465500 
	C105.028473,213.871262 100.540451,210.440613 96.063148,207.486816 
	C99.281189,206.450516 102.228783,205.762665 105.176376,205.074799 
z"/>
<path fill="#1BD5CE" opacity="1.000000" stroke="none" 
	d="
M320.014069,208.100372 
	C307.672791,218.204163 295.063782,219.215897 284.796906,210.976288 
	C282.876556,209.435135 280.696106,207.565460 283.014374,205.419312 
	C284.075897,204.436600 287.522186,204.648666 288.930664,205.656006 
	C295.821625,210.584351 302.800507,210.354416 310.889709,206.996094 
	C314.503845,206.964172 317.753662,204.016876 320.014069,208.100372 
z"/>
<path fill="#2AC7D9" opacity="1.000000" stroke="none" 
	d="
M296.899597,192.019104 
	C301.400970,192.012177 306.029053,192.655457 310.367096,191.810272 
	C314.470337,191.010834 318.269135,188.648529 322.732727,187.044128 
	C324.474670,188.289825 325.685669,189.464996 326.896698,190.640167 
	C323.183289,192.768677 319.469879,194.897186 314.979126,196.998871 
	C308.670715,198.030746 303.139618,199.089432 297.608521,200.148117 
	C294.212524,197.890045 290.816528,195.631989 287.148529,192.775253 
	C286.565460,190.730820 286.254364,189.285049 285.943268,187.839294 
	C287.403107,188.008774 288.867767,188.145920 290.320526,188.362823 
	C290.947113,188.456375 291.549011,188.714905 292.162140,188.898483 
	C293.096832,189.654861 294.031555,190.411224 295.325134,191.614807 
	C296.089203,192.047729 296.494415,192.033417 296.899597,192.019104 
z"/>
<path fill="#20BBC1" opacity="1.000000" stroke="none" 
	d="
M214.751755,132.482040 
	C212.804184,130.978241 210.856613,129.474442 208.506561,127.659897 
	C206.593674,129.249069 204.617432,130.890869 202.266144,132.239624 
	C200.705521,127.562424 197.585709,128.963028 194.804840,129.655609 
	C191.551575,130.465836 188.339096,131.439804 185.108917,132.342743 
	C192.770340,129.651627 199.369827,125.493454 204.465591,119.002480 
	C207.115845,115.626572 209.758163,116.253403 212.778030,119.210846 
	C216.524384,122.879768 220.847076,125.960213 224.685287,129.589569 
	C221.045639,130.110092 216.480682,126.002350 214.751755,132.482040 
z"/>
<path fill="#2AC7D9" opacity="1.000000" stroke="none" 
	d="
M99.655357,189.754730 
	C100.579453,189.938263 101.503548,190.121780 102.782730,190.779053 
	C103.717728,191.516006 104.297630,191.779221 104.877533,192.042435 
	C109.503319,192.019363 114.136902,192.139801 118.750343,191.889343 
	C120.211945,191.809998 121.619804,190.740799 123.726425,189.950989 
	C127.030586,189.463043 130.515549,183.426636 131.980453,190.909958 
	C127.671585,194.137253 123.362724,197.364548 118.463913,200.289520 
	C116.091888,199.328110 114.357658,198.370728 112.517227,198.075546 
	C109.247253,197.551132 105.912910,197.428055 102.605499,197.137085 
	C98.484558,195.372467 94.363617,193.607849 90.272781,191.231262 
	C93.420380,190.331116 96.537872,190.042923 99.655357,189.754730 
z"/>
<path fill="#29BFD1" opacity="1.000000" stroke="none" 
	d="
M220.396149,190.996948 
	C225.433289,187.676376 230.326782,184.102478 235.563187,181.133316 
	C238.550262,179.439575 242.096558,178.732086 246.107834,177.604324 
	C247.578766,177.162064 248.332932,176.695999 249.087097,176.229919 
	C249.087097,176.229935 249.058777,176.116898 249.416321,176.117981 
	C250.162460,176.019775 250.551041,175.920486 251.182800,176.077484 
	C253.298721,177.257477 255.171448,178.181198 257.044189,179.104919 
	C250.969452,181.812866 244.857452,184.441162 238.833740,187.258209 
	C235.128036,188.991241 231.557236,191.012772 227.239487,192.921860 
	C224.500793,192.291611 222.448456,191.644272 220.396149,190.996948 
z"/>
<path fill="#1BD5CE" opacity="1.000000" stroke="none" 
	d="
M214.935760,132.747131 
	C216.480682,126.002350 221.045639,130.110092 224.880035,129.865707 
	C225.704758,129.960114 226.099213,130.073074 226.836502,130.648041 
	C228.427399,131.501251 229.675476,131.892441 230.923538,132.283646 
	C231.396866,132.338943 231.870193,132.394257 232.744263,132.828888 
	C233.738632,133.225220 234.332245,133.242203 234.925858,133.259186 
	C236.410095,133.282974 237.903915,133.208099 239.376556,133.351242 
	C242.362427,133.641434 245.968109,133.758957 245.593338,137.956711 
	C245.259644,141.694458 241.969543,141.602768 239.053970,141.476715 
	C230.210587,141.094345 222.259293,138.204727 214.935760,132.747131 
z"/>
<path fill="#1BD5CE" opacity="1.000000" stroke="none" 
	d="
M184.742004,132.331619 
	C188.339096,131.439804 191.551575,130.465836 194.804840,129.655609 
	C197.585709,128.963028 200.705521,127.562424 201.928925,132.309296 
	C195.111298,138.185333 187.078842,140.649841 178.496536,141.496719 
	C175.536652,141.788788 171.869858,142.065201 171.479446,137.904724 
	C171.072525,133.568283 174.834000,133.735596 177.766052,133.342651 
	C178.589371,133.232300 179.425613,133.218246 180.822205,133.341858 
	C181.942551,133.318436 182.496597,133.113205 183.050659,132.907974 
	C183.492142,132.712143 183.933624,132.516327 184.742004,132.331619 
z"/>
<path fill="#31B0D1" opacity="1.000000" stroke="none" 
	d="
M175.860062,206.319443 
	C168.262772,201.873764 160.665482,197.428070 153.114929,192.361313 
	C155.573746,191.434738 157.985809,191.129242 160.397888,190.823746 
	C168.316605,194.934341 176.235306,199.044937 183.986694,203.435364 
	C180.771820,203.377731 177.361053,201.930206 175.860062,206.319443 
z"/>
<path fill="#29BFD1" opacity="1.000000" stroke="none" 
	d="
M183.011978,188.998932 
	C175.068344,185.682190 167.124725,182.365448 159.162384,178.394409 
	C161.850845,177.129196 164.557999,176.518250 167.265152,175.907318 
	C174.884491,179.004639 182.503845,182.101974 189.910797,185.535278 
	C187.469604,186.913818 185.240784,187.956375 183.011978,188.998932 
z"/>
<path fill="#38AEDA" opacity="1.000000" stroke="none" 
	d="
M167.233734,175.520264 
	C164.557999,176.518250 161.850845,177.129196 158.982635,178.122589 
	C156.811951,176.058395 154.802307,173.611755 152.800583,170.375397 
	C152.831879,168.349747 152.855255,167.113815 152.878632,165.877869 
	C152.878632,165.877869 152.998779,166.000000 153.304962,165.989120 
	C155.034988,166.327942 156.458847,166.677628 157.882706,167.027313 
	C157.882706,167.027313 158.158859,167.263184 158.181915,167.804962 
	C158.918167,169.136993 159.631363,169.927246 160.344543,170.717499 
	C161.024490,169.917557 162.066055,169.209610 162.298523,168.295807 
	C162.636185,166.968582 162.390076,165.492813 162.392929,164.080399 
	C162.388199,163.637589 162.383484,163.194794 162.741150,162.242126 
	C162.948456,159.779480 162.793381,157.826660 162.638306,155.873856 
	C162.534363,155.442398 162.430435,155.010925 162.533661,154.010345 
	C162.824951,152.680771 162.909058,151.920349 163.273163,150.938934 
	C164.713791,150.518829 165.874390,150.319717 167.059753,150.531525 
	C167.572891,156.264145 168.061295,161.585815 168.549698,166.907501 
	C168.519043,167.364105 168.488403,167.820694 167.977875,168.693420 
	C167.351303,170.091660 167.204620,171.073807 167.057938,172.055939 
	C167.106064,173.081696 167.154190,174.107468 167.233734,175.520264 
z"/>
<path fill="#21CED1" opacity="1.000000" stroke="none" 
	d="
M183.284058,189.199692 
	C185.240784,187.956375 187.469604,186.913818 190.119843,185.817505 
	C198.267166,189.585754 201.346451,196.406967 202.112808,204.440140 
	C202.232849,205.698318 200.294479,207.152893 198.526810,209.596420 
	C194.656738,200.833923 192.258728,192.561905 183.284058,189.199692 
z"/>
<path fill="#2BB5CD" opacity="1.000000" stroke="none" 
	d="
M226.389694,206.712921 
	C232.151733,204.082260 237.941772,201.510483 243.661514,198.790833 
	C245.830261,197.759613 247.837036,196.387741 250.592026,195.086517 
	C252.884979,196.090897 254.503540,197.179871 256.122101,198.268860 
	C248.656555,202.212051 241.191010,206.155243 233.251968,209.668915 
	C230.648880,208.397247 228.519287,207.555099 226.389694,206.712921 
z"/>
<path fill="#1ED3D2" opacity="1.000000" stroke="none" 
	d="
M204.355026,215.846481 
	C206.489929,216.709641 207.769547,221.635345 211.727722,217.044846 
	C215.119751,216.236267 217.638702,215.920486 217.925934,219.775009 
	C217.393784,220.405731 216.861633,221.036438 215.766678,221.902267 
	C214.815750,222.783829 214.427612,223.430267 214.039490,224.076721 
	C213.609665,225.131714 213.404037,226.378632 212.701050,227.199783 
	C211.429825,228.684662 210.005051,230.669388 208.365967,230.981003 
	C207.313339,231.181152 205.602341,228.891144 204.471069,227.487869 
	C202.546295,225.100357 200.845825,222.532028 199.097229,219.421417 
	C200.880585,217.817596 202.617813,216.832047 204.355026,215.846481 
z"/>
<path fill="#31B0D1" opacity="1.000000" stroke="none" 
	d="
M257.377747,179.028473 
	C255.171448,178.181198 253.298721,177.257477 251.156586,175.864929 
	C250.617188,174.905777 250.347198,174.415451 250.077209,173.925125 
	C249.814087,173.186691 249.550980,172.448242 249.408157,171.160767 
	C249.296600,170.037140 249.064774,169.462540 248.832962,168.887939 
	C248.614243,167.843735 248.395538,166.799530 248.405426,165.079773 
	C250.136597,161.190735 251.860611,160.941376 253.724167,164.085495 
	C254.285553,165.032654 254.634903,166.105499 255.081390,167.120773 
	C255.279327,167.677002 255.477264,168.233215 255.841705,169.457916 
	C256.751984,169.641022 257.495728,169.155655 258.239471,168.670288 
	C258.239471,168.670288 258.268036,168.367996 258.643982,168.138275 
	C259.302246,167.218826 259.584564,166.529099 259.866913,165.839386 
	C259.866913,165.839386 259.980652,165.954666 260.299377,165.947784 
	C262.094940,166.987976 263.571777,168.035065 265.048645,169.082138 
	C262.602844,172.372101 260.157074,175.662064 257.377747,179.028473 
z"/>
<path fill="#20C4C8" opacity="1.000000" stroke="none" 
	d="
M297.845337,200.419373 
	C303.139618,199.089432 308.670715,198.030746 314.604919,196.990143 
	C316.118195,197.820679 317.155731,198.767715 318.354919,199.415527 
	C320.381287,200.510147 322.509949,201.415436 324.595581,202.400345 
	C323.304443,204.311737 322.013306,206.223129 320.368103,208.117432 
	C317.753662,204.016876 314.503845,206.964172 311.265594,206.932953 
	C309.983826,206.100677 309.252472,204.928665 308.210938,204.485291 
	C304.896790,203.074509 301.467133,201.934982 297.845337,200.419373 
z"/>
<path fill="#21CED1" opacity="1.000000" stroke="none" 
	d="
M102.720428,197.516678 
	C105.912910,197.428055 109.247253,197.551132 112.517227,198.075546 
	C114.357658,198.370728 116.091888,199.328110 118.102646,200.356979 
	C114.206566,202.168793 110.081818,203.610794 105.566727,205.063812 
	C102.228783,205.762665 99.281189,206.450516 95.894470,207.181244 
	C94.476753,205.689514 93.498146,204.154938 92.519539,202.620346 
	C94.063393,201.645355 95.525536,200.489868 97.173126,199.744049 
	C98.970955,198.930222 100.940598,198.495972 102.720428,197.516678 
z"/>
<path fill="#507BD5" opacity="1.000000" stroke="none" 
	d="
M102.774948,144.932007 
	C101.398193,146.400452 99.854324,147.570740 98.089310,148.989624 
	C96.510345,148.164154 95.152534,147.090118 93.316414,145.637741 
	C92.887421,147.122757 92.567230,148.231125 91.675644,149.670349 
	C89.336395,150.000931 87.568550,150.000687 85.800713,150.000443 
	C85.751129,149.256165 85.701538,148.511902 85.974152,147.180786 
	C86.317169,145.428436 86.337982,144.262955 86.358795,143.097458 
	C86.453018,141.951981 86.547234,140.806488 87.001053,139.064087 
	C87.466789,137.779480 87.572922,137.091766 87.679047,136.404068 
	C87.849136,135.956528 88.019226,135.508987 88.826904,134.964417 
	C90.886246,134.928116 92.307999,134.988831 93.729752,135.049561 
	C96.689110,138.244324 99.648468,141.439102 102.774948,144.932007 
z"/>
<path fill="#4E73CC" opacity="1.000000" stroke="none" 
	d="
M253.333755,139.035019 
	C256.265778,132.756607 261.152191,128.315079 267.144073,125.195465 
	C268.352325,124.566391 270.513580,125.767693 272.235443,126.125107 
	C271.730682,127.687820 271.665680,129.678818 270.638916,130.733200 
	C267.520630,133.935349 264.030548,136.775421 260.125488,139.673660 
	C257.488373,139.405548 255.411057,139.220276 253.333755,139.035019 
z"/>
<path fill="#2BB5CD" opacity="1.000000" stroke="none" 
	d="
M235.536194,259.305481 
	C234.293015,256.514587 232.530457,255.861206 229.915634,257.034393 
	C228.448242,257.692749 226.925095,258.226807 225.052322,258.824158 
	C230.952942,254.476028 237.228333,250.120636 244.279968,245.779633 
	C246.820053,246.765549 248.583862,247.737122 250.347687,248.708679 
	C245.534561,252.241653 240.721451,255.774643 235.536194,259.305481 
z"/>
<path fill="#2AC7D9" opacity="1.000000" stroke="none" 
	d="
M176.092072,206.560928 
	C177.361053,201.930206 180.771820,203.377731 184.235138,203.692459 
	C188.952286,205.944916 193.253693,208.220062 197.726440,211.144241 
	C196.177017,212.900162 194.456223,214.007050 192.735443,215.113953 
	C187.264984,212.343430 181.794525,209.572922 176.092072,206.560928 
z"/>
<path fill="#3A99CD" opacity="1.000000" stroke="none" 
	d="
M184.136032,159.997620 
	C185.698013,166.595169 187.075836,167.604538 193.314423,165.951843 
	C195.650742,165.431229 197.362274,165.222595 199.073807,165.013977 
	C197.275467,170.296906 193.166763,172.841797 187.730225,172.040115 
	C182.317459,171.241928 179.138382,167.113083 179.407288,160.520279 
	C181.260071,160.231644 182.698044,160.114639 184.136032,159.997620 
z"/>
<path fill="#2BB5CD" opacity="1.000000" stroke="none" 
	d="
M221.372589,230.700653 
	C226.048248,228.423111 230.740021,226.177765 235.390564,223.850037 
	C236.955093,223.066925 238.414764,222.074295 240.607239,220.990036 
	C243.642441,220.394073 246.285904,219.228409 247.011383,223.016861 
	C241.195740,226.137726 235.380081,229.258575 228.740540,232.310944 
	C225.735275,231.728516 223.553940,231.214584 221.372589,230.700653 
z"/>
<path fill="#20C4C8" opacity="1.000000" stroke="none" 
	d="
M220.102875,191.190964 
	C222.448456,191.644272 224.500793,192.291611 226.915054,193.017365 
	C225.180969,196.799835 223.277573,200.634338 220.898987,204.147079 
	C219.873993,205.660797 217.865067,206.508270 216.303131,207.658401 
	C215.635727,205.717087 213.982956,203.448151 214.497726,201.899887 
	C215.723297,198.213699 217.973404,194.868149 220.102875,191.190964 
z"/>
<path fill="#2BB5CD" opacity="1.000000" stroke="none" 
	d="
M184.028854,230.469666 
	C178.179382,227.115280 172.329895,223.760880 166.445602,219.856613 
	C167.646042,218.533081 168.881302,217.759430 170.116562,216.985764 
	C177.161972,220.691437 184.207367,224.397125 191.098373,228.401672 
	C188.643143,229.306656 184.969894,224.548355 184.028854,230.469666 
z"/>
<path fill="#30A2C5" opacity="1.000000" stroke="none" 
	d="
M256.487549,198.247711 
	C254.503540,197.179871 252.884979,196.090897 250.886948,194.912659 
	C253.885834,191.541336 257.157379,188.136719 260.703339,185.047043 
	C261.865265,184.034622 263.739716,183.840012 265.288330,183.271408 
	C265.810425,184.813354 267.249146,187.101807 266.702332,187.773224 
	C263.686981,191.475739 260.186890,194.783463 256.487549,198.247711 
z"/>
<path fill="#20C4C8" opacity="1.000000" stroke="none" 
	d="
M218.242523,219.662109 
	C217.638702,215.920486 215.119751,216.236267 212.088409,216.867722 
	C216.396652,213.536316 221.062027,210.179367 226.058548,206.767670 
	C228.519287,207.555099 230.648880,208.397247 232.884308,209.605057 
	C228.179825,213.163559 223.369476,216.356384 218.242523,219.662109 
z"/>
<path fill="#4E73CC" opacity="1.000000" stroke="none" 
	d="
M154.785797,137.397781 
	C152.312347,135.438904 149.583771,133.717346 147.459305,131.433807 
	C146.145096,130.021164 144.582611,127.189140 145.167892,125.979797 
	C146.711731,122.789803 149.520782,124.399261 151.428909,126.003120 
	C154.966278,128.976395 158.233261,132.271347 161.335541,135.674042 
	C158.600510,134.856873 156.310837,134.509293 154.785797,137.397781 
z"/>
<path fill="#2BB5CD" opacity="1.000000" stroke="none" 
	d="
M165.145233,238.955124 
	C169.815384,242.708603 174.485519,246.462067 178.954163,250.481903 
	C176.156693,251.194992 173.560730,251.641724 170.964767,252.088470 
	C166.691040,248.281433 162.417328,244.474396 158.443604,240.334747 
	C160.877472,239.653152 163.011353,239.304138 165.145233,238.955124 
z"/>
<path fill="#3A99CD" opacity="1.000000" stroke="none" 
	d="
M271.600037,221.225998 
	C268.717651,225.935181 265.835266,230.644379 262.322083,235.121185 
	C259.493896,234.931778 257.296448,234.974716 255.099030,235.017639 
	C258.335785,230.187607 261.572571,225.357559 265.447021,220.305054 
	C267.923126,220.463715 269.761566,220.844849 271.600037,221.225998 
z"/>
<path fill="#1ED3D2" opacity="1.000000" stroke="none" 
	d="
M206.771927,251.135223 
	C206.438065,250.759277 206.104202,250.383331 205.813110,249.408020 
	C205.338455,247.881409 204.821014,246.954147 204.303574,246.026901 
	C202.962250,244.208893 201.620926,242.390884 200.207092,239.958817 
	C200.779251,238.547058 201.423904,237.749344 202.345337,237.137207 
	C203.463837,238.082550 204.308624,238.838928 205.146744,239.602631 
	C208.758240,242.893509 209.860077,242.608490 211.894699,237.852951 
	C211.894699,237.852951 211.932144,237.929947 212.239685,237.884277 
	C215.798721,236.598984 217.135864,237.450592 216.002228,241.001343 
	C214.213196,244.230972 212.424149,247.460602 209.928101,250.849869 
	C208.404694,251.051422 207.588318,251.093323 206.771927,251.135223 
z"/>
<path fill="#31B0D1" opacity="1.000000" stroke="none" 
	d="
M254.802124,235.176743 
	C257.296448,234.974716 259.493896,234.931778 261.971191,235.152679 
	C258.496185,239.751343 254.741333,244.086166 250.667084,248.564819 
	C248.583862,247.737122 246.820053,246.765549 244.592163,245.706940 
	C247.587143,242.191879 251.046188,238.763855 254.802124,235.176743 
z"/>
<path fill="#30A2C5" opacity="1.000000" stroke="none" 
	d="
M227.230148,157.624298 
	C228.289581,158.765518 229.349030,159.906738 231.220245,161.922379 
	C231.486542,157.753479 231.678146,154.753967 231.931244,150.791626 
	C233.755127,151.375427 235.222061,151.844971 236.335175,152.680481 
	C235.377335,153.805130 234.773331,154.563812 234.169327,155.322495 
	C234.990341,155.877090 235.811371,156.431686 236.632401,156.986282 
	C236.677979,159.999496 236.723557,163.012695 236.246826,166.501892 
	C233.414932,167.039322 231.105331,167.100739 228.795746,167.162155 
	C228.795746,167.162155 228.912369,167.092606 228.860535,166.849365 
	C228.307556,166.051331 227.806396,165.496552 227.305237,164.941772 
	C226.930466,164.468842 226.555695,163.995911 226.068909,162.920380 
	C225.630997,161.558670 225.305130,160.799561 225.304626,159.918182 
	C226.163376,159.072037 226.696777,158.348160 227.230148,157.624298 
z"/>
<path fill="#456BB9" opacity="1.000000" stroke="none" 
	d="
M139.218719,190.448029 
	C139.592300,191.062943 139.635437,192.095108 140.061920,192.931885 
	C140.756012,194.293716 141.700714,195.527802 142.539658,196.815811 
	C143.335022,195.392242 144.431915,194.050934 144.848373,192.524033 
	C145.353821,190.670898 145.284988,188.661133 145.682465,186.387512 
	C146.373886,192.780991 146.847473,199.506104 146.910446,206.492310 
	C144.490036,206.539764 142.480240,206.326111 140.470428,206.112457 
	C140.000412,201.000824 139.530411,195.889191 139.218719,190.448029 
z"/>
<path fill="#20BBC1" opacity="1.000000" stroke="none" 
	d="
M171.103210,252.385254 
	C173.560730,251.641724 176.156693,251.194992 179.156311,250.761658 
	C183.460419,253.410034 187.360886,256.045013 191.512375,258.883362 
	C189.066422,258.985626 185.575027,254.535767 183.941925,260.872314 
	C179.678223,258.385651 175.459930,255.533859 171.103210,252.385254 
z"/>
<path fill="#20BBC1" opacity="1.000000" stroke="none" 
	d="
M184.257751,159.596985 
	C182.698044,160.114639 181.260071,160.231644 179.558777,160.233383 
	C179.135651,155.497528 182.127151,153.150223 185.847061,151.735901 
	C190.074692,150.128571 193.986298,151.097961 198.628296,155.341599 
	C196.027725,155.879837 194.060059,156.960571 193.048233,156.378830 
	C188.871826,153.977600 186.558685,156.109573 184.257751,159.596985 
z"/>
<path fill="#4C8EDD" opacity="1.000000" stroke="none" 
	d="
M154.974213,137.674347 
	C156.310837,134.509293 158.600510,134.856873 161.412872,135.995087 
	C163.738174,139.840179 165.708847,143.605881 167.528320,147.948196 
	C167.263092,149.056732 167.149048,149.588669 167.035004,150.120590 
	C165.874390,150.319717 164.713791,150.518829 163.099182,150.707855 
	C162.057877,149.769638 161.470581,148.841507 160.883270,147.913391 
	C158.976395,144.592575 157.069504,141.271744 154.974213,137.674347 
z"/>
<path fill="#4C8EDD" opacity="1.000000" stroke="none" 
	d="
M253.075089,139.288177 
	C255.411057,139.220276 257.488373,139.405548 259.827850,139.812347 
	C258.626373,143.435181 257.162689,146.836487 255.242966,150.760345 
	C253.508347,154.355560 251.007492,154.427353 248.276688,153.934570 
	C248.388779,152.894806 248.500870,151.855042 248.959274,150.353607 
	C249.317963,149.294220 249.330338,148.696518 249.342712,148.098816 
	C250.500610,145.246307 251.658508,142.393814 253.075089,139.288177 
z"/>
<path fill="#4E73CC" opacity="1.000000" stroke="none" 
	d="
M277.154907,134.207138 
	C279.208771,135.443085 280.862274,136.713211 282.944763,138.048218 
	C279.180542,139.871521 275.070831,141.906921 270.741028,143.212296 
	C269.511963,143.582855 267.641510,141.826096 266.065216,141.044952 
	C267.112183,139.587326 267.857117,137.593033 269.275238,136.794968 
	C271.532471,135.524673 274.238373,135.051590 277.154907,134.207138 
z"/>
<path fill="#458CD1" opacity="1.000000" stroke="none" 
	d="
M271.832733,221.002777 
	C269.761566,220.844849 267.923126,220.463715 265.691895,220.045959 
	C266.752899,215.877136 268.206635,211.744934 270.200806,207.330078 
	C272.537140,207.373550 274.333038,207.699707 276.128937,208.025848 
	C274.774414,212.277069 273.419922,216.528305 271.832733,221.002777 
z"/>
<path fill="#31B0D1" opacity="1.000000" stroke="none" 
	d="
M165.106689,238.613617 
	C163.011353,239.304138 160.877472,239.653152 158.336578,240.015869 
	C155.325241,236.684799 152.720947,233.340042 150.287155,229.413513 
	C152.424744,228.516937 154.391800,228.202133 156.358871,227.887329 
	C159.261978,231.348907 162.165070,234.810501 165.106689,238.613617 
z"/>
<path fill="#2AC7D9" opacity="1.000000" stroke="none" 
	d="
M202.068558,236.951630 
	C201.423904,237.749344 200.779251,238.547058 200.064331,239.653946 
	C194.854172,236.960968 189.714279,233.958817 184.301605,230.713165 
	C184.969894,224.548355 188.643143,229.306656 191.332977,228.667145 
	C194.673981,230.305115 197.626022,231.976486 200.821442,234.225189 
	C201.399399,235.518906 201.733978,236.235260 202.068558,236.951630 
z"/>
<path fill="#458CD1" opacity="1.000000" stroke="none" 
	d="
M85.673492,150.436478 
	C87.568550,150.000687 89.336395,150.000931 91.545059,150.002625 
	C92.788559,154.083206 93.591217,158.162338 94.097923,162.521423 
	C91.685158,162.926697 89.568359,163.052032 87.451553,163.177368 
	C86.816452,159.075745 86.181358,154.974136 85.673492,150.436478 
z"/>
<path fill="#30A2C5" opacity="1.000000" stroke="none" 
	d="
M247.343048,222.943451 
	C246.285904,219.228409 243.642441,220.394073 240.907166,220.811188 
	C243.882538,217.895859 247.123230,214.813248 250.671539,212.138763 
	C251.829330,211.266068 253.788712,211.456818 255.381470,211.161194 
	C255.347214,212.682526 255.924942,214.713013 255.162964,215.628922 
	C252.955307,218.282562 250.209412,220.488434 247.343048,222.943451 
z"/>
<path fill="#3A99CD" opacity="1.000000" stroke="none" 
	d="
M87.471359,163.562851 
	C89.568359,163.052032 91.685158,162.926697 94.132019,162.896454 
	C96.303490,165.430222 98.144920,167.868896 100.035751,170.651154 
	C98.405602,171.805023 96.760002,172.699387 95.034637,173.396194 
	C93.875061,173.864502 92.602592,174.053238 91.170288,174.147598 
	C90.983902,172.900284 91.333244,171.735504 90.969398,170.870819 
	C89.970070,168.495972 88.671379,166.247070 87.471359,163.562851 
z"/>
<path fill="#3A99CD" opacity="1.000000" stroke="none" 
	d="
M325.626587,173.572144 
	C325.113098,173.871582 324.191162,174.037262 323.460297,173.737350 
	C321.401215,172.892426 319.420654,171.856125 316.975708,170.856491 
	C318.566620,168.046036 320.590973,165.274338 323.267578,162.252594 
	C325.874359,161.989090 327.828827,161.975616 329.783325,161.962158 
	C328.290649,165.716721 326.798004,169.471283 325.626587,173.572144 
z"/>
<path fill="#507BD5" opacity="1.000000" stroke="none" 
	d="
M276.349884,207.641693 
	C274.333038,207.699707 272.537140,207.373550 270.390228,207.026306 
	C270.397949,203.270432 270.756683,199.535660 271.250000,195.404526 
	C273.261230,195.319550 275.137909,195.630920 277.370392,195.973969 
	C277.341095,199.756271 276.955963,203.506897 276.349884,207.641693 
z"/>
<path fill="#458CD1" opacity="1.000000" stroke="none" 
	d="
M329.987732,161.622498 
	C327.828827,161.975616 325.874359,161.989090 323.500122,162.003860 
	C323.623352,158.604416 324.166290,155.203644 324.819946,151.414154 
	C326.853394,150.613480 328.776123,150.201523 331.003418,149.886444 
	C330.936005,153.749847 330.564056,157.516327 329.987732,161.622498 
z"/>
<path fill="#456BB9" opacity="1.000000" stroke="none" 
	d="
M118.818253,149.708252 
	C117.609634,149.105942 116.114311,148.356888 115.029930,147.216934 
	C113.002777,145.085907 111.395012,143.688232 109.491814,147.422333 
	C109.246376,147.903885 106.682594,147.203812 105.420212,146.581757 
	C105.681618,145.713074 105.715546,145.313705 105.749474,144.914337 
	C105.468315,144.959183 105.187164,145.004044 104.906013,145.048889 
	C104.906013,145.048904 104.952332,145.137329 104.905411,145.155945 
	C104.478806,142.672928 104.099113,140.171265 103.761780,137.292572 
	C107.152443,141.890976 107.602745,141.938095 110.588676,137.340607 
	C113.417908,141.178116 116.067459,145.281601 118.818253,149.708252 
z"/>
<path fill="#2BB5CD" opacity="1.000000" stroke="none" 
	d="
M99.419769,189.488159 
	C96.537872,190.042923 93.420380,190.331116 90.083046,190.943207 
	C87.371147,188.720444 84.879097,186.173782 82.324692,183.304810 
	C84.469765,182.082977 86.677208,181.183472 89.127823,180.227631 
	C92.642067,183.188065 95.913132,186.204834 99.419769,189.488159 
z"/>
<path fill="#3A99CD" opacity="1.000000" stroke="none" 
	d="
M156.284729,227.526398 
	C154.391800,228.202133 152.424744,228.516937 150.136475,229.107025 
	C148.067520,226.155823 146.319748,222.929352 144.905334,219.353836 
	C146.888275,218.231384 148.537872,217.458008 150.187439,216.684631 
	C152.195160,220.178238 154.202881,223.671844 156.284729,227.526398 
z"/>
<path fill="#3286B1" opacity="1.000000" stroke="none" 
	d="
M248.113861,154.304688 
	C251.007492,154.427353 253.508347,154.355560 255.048279,151.091904 
	C255.288025,156.031113 255.266403,161.161285 255.163086,166.706116 
	C254.634903,166.105499 254.285553,165.032654 253.724167,164.085495 
	C251.860611,160.941376 250.136597,161.190735 248.437378,164.677490 
	C248.144135,161.525436 248.047577,158.100113 248.113861,154.304688 
z"/>
<path fill="#458CD1" opacity="1.000000" stroke="none" 
	d="
M215.846085,168.683456 
	C211.405884,173.280884 206.988083,173.465378 200.816437,169.190369 
	C201.221100,165.887512 202.553238,164.640274 206.008392,166.330368 
	C207.164062,166.895645 208.812820,166.452927 210.891876,166.211456 
	C212.992279,165.640045 214.436981,165.328171 215.920319,165.382248 
	C215.921341,166.726608 215.883713,167.705032 215.846085,168.683456 
z"/>
<path fill="#458CD1" opacity="1.000000" stroke="none" 
	d="
M150.158661,216.313004 
	C148.537872,217.458008 146.888275,218.231384 144.874664,219.008972 
	C143.517654,216.500366 142.524689,213.987564 141.570770,210.741730 
	C141.358459,209.325256 141.107117,208.641800 140.855789,207.958359 
	C140.717575,207.556641 140.579361,207.154938 140.455780,206.432831 
	C142.480240,206.326111 144.490036,206.539764 146.832397,206.901520 
	C148.153229,210.013535 149.141541,212.977463 150.158661,216.313004 
z"/>
<path fill="#30A2C5" opacity="1.000000" stroke="none" 
	d="
M327.186951,190.474152 
	C325.685669,189.464996 324.474670,188.289825 323.050232,186.859009 
	C324.369995,184.764465 325.903137,182.925537 327.315735,180.703247 
	C329.549713,181.104523 331.904205,181.889191 334.574097,182.806274 
	C332.418701,185.395187 329.947937,187.851654 327.186951,190.474152 
z"/>
<path fill="#20BBC1" opacity="1.000000" stroke="none" 
	d="
M216.322571,240.879318 
	C217.135864,237.450592 215.798721,236.598984 212.199829,237.868668 
	C214.805573,235.528381 217.758743,233.158051 221.042252,230.744202 
	C223.553940,231.214584 225.735275,231.728516 228.400360,232.346298 
	C224.803696,235.219208 220.723297,237.988251 216.322571,240.879318 
z"/>
<path fill="#29BFD1" opacity="1.000000" stroke="none" 
	d="
M227.144684,157.291962 
	C226.696777,158.348160 226.163376,159.072037 224.960571,159.870453 
	C223.827560,159.944809 223.363968,159.944626 222.546326,159.964111 
	C221.019302,159.957825 219.846313,159.931854 218.562439,159.480408 
	C218.309433,156.705322 218.167328,154.355713 218.025208,152.006119 
	C223.660736,148.871414 224.889389,153.773773 227.144684,157.291962 
z"/>
<path fill="#061C1E" opacity="1.000000" stroke="none" 
	d="
M217.614426,152.004395 
	C218.167328,154.355713 218.309433,156.705322 218.419006,159.872375 
	C218.335815,161.800629 218.285202,162.911438 217.924561,163.943237 
	C217.007050,163.664948 216.399551,163.465622 215.530121,163.047211 
	C212.269379,161.088989 209.270569,159.349869 206.347031,157.290894 
	C207.991196,156.434235 209.777863,155.133911 211.087128,155.507355 
	C214.660797,156.526703 215.304642,155.192825 214.742767,152.137787 
	C215.563065,152.092743 216.383347,152.047699 217.614426,152.004395 
z"/>
<path fill="#2F99BC" opacity="1.000000" stroke="none" 
	d="
M160.210831,190.522125 
	C157.985809,191.129242 155.573746,191.434738 152.961563,192.075714 
	C151.883072,191.068008 150.411346,189.779373 150.281525,188.367371 
	C150.130646,186.726196 151.155960,184.976898 151.670807,183.274536 
	C153.326340,183.973999 155.258896,184.348328 156.563385,185.459763 
	C158.015106,186.696609 158.894958,188.604645 160.210831,190.522125 
z"/>
<path fill="#2F99BC" opacity="1.000000" stroke="none" 
	d="
M170.066422,216.640366 
	C168.881302,217.759430 167.646042,218.533081 166.243073,219.583862 
	C164.570969,218.382889 162.709625,217.110931 161.693314,215.350967 
	C161.063187,214.259796 161.715576,212.427979 161.792267,210.928619 
	C163.237671,211.214828 164.972321,211.099579 166.059540,211.882935 
	C167.625275,213.011063 168.720352,214.792404 170.066422,216.640366 
z"/>
<path fill="#20C4C8" opacity="1.000000" stroke="none" 
	d="
M214.370346,152.052917 
	C215.304642,155.192825 214.660797,156.526703 211.087128,155.507355 
	C209.777863,155.133911 207.991196,156.434235 206.158234,157.513214 
	C204.813309,158.013351 203.732452,157.971298 202.651581,157.929260 
	C202.859100,151.845642 206.472427,149.947250 214.370346,152.052917 
z"/>
<path fill="#2F99BC" opacity="1.000000" stroke="none" 
	d="
M202.604492,158.250305 
	C203.732452,157.971298 204.813309,158.013351 206.082977,157.833069 
	C209.270569,159.349869 212.269379,161.088989 215.549332,163.339172 
	C215.847534,164.238922 215.864609,164.627609 215.881683,165.016296 
	C214.436981,165.328171 212.992279,165.640045 211.241165,166.008759 
	C209.548279,164.835556 208.157837,163.609985 206.776520,162.374207 
	C205.365479,161.111816 203.963394,159.839386 202.604492,158.250305 
z"/>
<path fill="#3286B1" opacity="1.000000" stroke="none" 
	d="
M134.279419,173.751221 
	C133.159225,166.765320 129.126724,171.700745 126.019951,171.784531 
	C127.160507,170.546585 128.707138,169.339020 130.206909,168.075806 
	C132.353867,166.267456 134.841537,164.586334 137.050827,167.346191 
	C139.380569,170.256531 136.818405,172.078415 134.279419,173.751221 
z"/>
<path fill="#2F99BC" opacity="1.000000" stroke="none" 
	d="
M199.271652,164.707916 
	C197.362274,165.222595 195.650742,165.431229 193.693115,165.826935 
	C193.404587,165.688690 193.484558,165.236923 193.300095,165.058380 
	C192.008972,163.808701 190.663208,162.615479 189.334915,161.404205 
	C191.951904,160.948730 194.591797,160.106003 197.172791,160.258728 
	C198.017120,160.308701 198.708282,162.947189 199.271652,164.707916 
z"/>
<path fill="#20BBC1" opacity="1.000000" stroke="none" 
	d="
M192.921570,215.396027 
	C194.456223,214.007050 196.177017,212.900162 197.937698,211.428772 
	C200.018997,212.448608 202.060410,213.832916 204.228424,215.531860 
	C202.617813,216.832047 200.880585,217.817596 198.942230,219.130890 
	C196.863312,218.198441 194.985519,216.938278 192.921570,215.396027 
z"/>
<path fill="#2F99BC" opacity="1.000000" stroke="none" 
	d="
M292.025818,188.586197 
	C291.549011,188.714905 290.947113,188.456375 290.320526,188.362823 
	C288.867767,188.145920 287.403107,188.008774 285.943268,187.839294 
	C286.254364,189.285049 286.565460,190.730820 286.941254,192.500473 
	C285.994720,192.011261 284.441528,191.378433 284.097229,190.343445 
	C283.560120,188.728790 283.842743,186.841431 283.778015,185.069626 
	C285.555328,185.189209 287.438995,184.991135 289.073151,185.538300 
	C290.191833,185.912857 290.962982,187.325394 292.025818,188.586197 
z"/>
<path fill="#2F99BC" opacity="1.000000" stroke="none" 
	d="
M132.283081,190.803467 
	C130.515549,183.426636 127.030586,189.463043 124.045853,189.784988 
	C124.936729,188.510742 125.978088,186.836411 127.483177,186.053253 
	C129.113358,185.205002 131.175919,185.187668 133.049911,184.807968 
	C132.895187,186.770966 132.740448,188.733978 132.283081,190.803467 
z"/>
<path fill="#3286B1" opacity="1.000000" stroke="none" 
	d="
M167.059753,150.531525 
	C167.149048,149.588669 167.263092,149.056732 167.544144,148.311844 
	C168.131714,154.139435 168.552261,160.180008 168.761261,166.564026 
	C168.061295,161.585815 167.572891,156.264145 167.059753,150.531525 
z"/>
<path fill="#3286B1" opacity="1.000000" stroke="none" 
	d="
M228.860413,167.526093 
	C231.105331,167.100739 233.414932,167.039322 236.147125,166.941101 
	C236.071228,168.642807 236.013046,171.515015 234.993195,171.911118 
	C231.694077,173.192429 230.172653,170.466125 228.860413,167.526093 
z"/>
<path fill="#20BBC1" opacity="1.000000" stroke="none" 
	d="
M202.345337,237.137207 
	C201.733978,236.235260 201.399399,235.518906 201.018036,234.509216 
	C203.483719,236.295685 205.996155,238.375458 208.669540,240.588470 
	C209.485153,239.819626 210.309082,239.042923 211.513855,238.059601 
	C209.860077,242.608490 208.758240,242.893509 205.146744,239.602631 
	C204.308624,238.838928 203.463837,238.082550 202.345337,237.137207 
z"/>
<path fill="#3286B1" opacity="1.000000" stroke="none" 
	d="
M288.146454,169.516907 
	C285.853333,170.235840 282.242920,164.590988 281.007507,171.639252 
	C280.664093,170.384338 280.338684,168.742325 280.013275,167.100311 
	C281.670288,166.959641 283.401123,166.467880 284.959625,166.795639 
	C286.092407,167.033890 286.997375,168.355530 288.146454,169.516907 
z"/>
<path fill="#30A2C5" opacity="1.000000" stroke="none" 
	d="
M218.234573,164.022232 
	C218.285202,162.911438 218.335815,161.800629 218.529892,160.297867 
	C219.846313,159.931854 221.019302,159.957825 222.557526,160.412994 
	C223.027618,161.733109 223.132477,162.623978 223.237335,163.514862 
	C223.426758,163.808914 223.490707,164.128098 223.067413,164.728790 
	C222.526016,165.017487 222.346390,165.049820 221.776581,165.058075 
	C220.606598,165.031113 219.826782,165.028229 218.935181,164.837158 
	C218.705780,164.366165 218.509506,164.157257 218.234573,164.022232 
z"/>
<path fill="#1D5B72" opacity="1.000000" stroke="none" 
	d="
M217.924561,163.943237 
	C218.509506,164.157257 218.705780,164.366165 218.902969,165.267441 
	C219.000885,167.896088 219.019226,169.906281 219.037567,171.916458 
	C218.177856,170.955276 217.318146,169.994110 216.152252,168.858200 
	C215.883713,167.705032 215.921341,166.726608 215.920319,165.382233 
	C215.864609,164.627609 215.847534,164.238922 215.811264,163.558258 
	C216.399551,163.465622 217.007050,163.664948 217.924561,163.943237 
z"/>
<path fill="#4C8EDD" opacity="1.000000" stroke="none" 
	d="
M219.410736,171.978195 
	C219.019226,169.906281 219.000885,167.896088 219.014771,165.455627 
	C219.826782,165.028229 220.606598,165.031113 221.747467,165.481857 
	C222.083984,167.926758 222.059464,169.923798 222.034927,171.920837 
	C221.284592,171.960526 220.534241,172.000229 219.410736,171.978195 
z"/>
<path fill="#3286B1" opacity="1.000000" stroke="none" 
	d="
M162.207092,164.378799 
	C162.390076,165.492813 162.636185,166.968582 162.298523,168.295807 
	C162.066055,169.209610 161.024490,169.917557 160.344543,170.717499 
	C159.631363,169.927246 158.918167,169.136993 158.222000,167.982071 
	C162.920380,171.037598 160.853424,165.776779 162.207092,164.378799 
z"/>
<path fill="#3A99CD" opacity="1.000000" stroke="none" 
	d="
M81.086761,169.068222 
	C80.167213,170.769272 79.051628,172.277542 77.836334,174.194824 
	C75.679237,170.982651 76.371529,168.875473 81.086761,169.068222 
z"/>
<path fill="#3286B1" opacity="1.000000" stroke="none" 
	d="
M265.395081,168.778198 
	C263.571777,168.035065 262.094940,166.987976 260.232849,165.901657 
	C261.787506,165.720612 263.727386,165.578812 266.046722,165.328888 
	C266.643555,165.816269 266.860931,166.411743 267.107025,167.144958 
	C266.670990,167.679886 266.206238,168.077072 265.395081,168.778198 
z"/>
<path fill="#3A99CD" opacity="1.000000" stroke="none" 
	d="
M339.557465,174.459839 
	C338.399139,173.002548 337.486359,171.323593 336.309204,169.406540 
	C340.634277,168.384842 340.919098,170.792282 339.557465,174.459839 
z"/>
<path fill="#3286B1" opacity="1.000000" stroke="none" 
	d="
M222.398407,171.905029 
	C222.059464,169.923798 222.083984,167.926758 222.137650,165.505920 
	C222.346390,165.049820 222.526016,165.017487 222.978378,164.961090 
	C223.088043,167.254440 222.924973,169.571823 222.398407,171.905029 
z"/>
<path fill="#456BB9" opacity="1.000000" stroke="none" 
	d="
M127.659180,151.721527 
	C125.838715,151.972214 123.579483,152.114227 121.105095,152.013580 
	C123.000099,151.718231 125.110260,151.665543 127.659180,151.721527 
z"/>
<path fill="#3286B1" opacity="1.000000" stroke="none" 
	d="
M162.494781,156.303741 
	C162.793381,157.826660 162.948456,159.779480 162.852600,161.927063 
	C162.518188,160.325775 162.434708,158.529709 162.494781,156.303741 
z"/>
<path fill="#3286B1" opacity="1.000000" stroke="none" 
	d="
M236.767441,156.605743 
	C235.811371,156.431686 234.990341,155.877090 234.169327,155.322495 
	C234.773331,154.563812 235.377335,153.805130 236.314423,153.048523 
	C236.732498,154.108810 236.817490,155.167023 236.767441,156.605743 
z"/>
<path fill="#3286B1" opacity="1.000000" stroke="none" 
	d="
M160.839569,148.261246 
	C161.470581,148.841507 162.057877,149.769638 162.819153,150.928833 
	C162.909058,151.920349 162.824951,152.680771 162.568573,153.676849 
	C161.862839,152.144684 161.329361,150.376892 160.839569,148.261246 
z"/>
<path fill="#456BB9" opacity="1.000000" stroke="none" 
	d="
M149.314468,143.070129 
	C149.345383,141.825912 149.685471,140.554703 150.138184,138.902527 
	C150.041763,140.028748 149.832703,141.535934 149.314468,143.070129 
z"/>
<path fill="#3286B1" opacity="1.000000" stroke="none" 
	d="
M157.848648,166.725250 
	C156.458847,166.677628 155.034988,166.327942 153.243332,165.929459 
	C154.521881,166.061508 156.168243,166.242340 157.848648,166.725250 
z"/>
<path fill="#3A99CD" opacity="1.000000" stroke="none" 
	d="
M87.449265,172.410370 
	C85.892143,171.877380 84.099617,171.069641 82.144531,169.913666 
	C83.725945,170.422180 85.469902,171.278915 87.449265,172.410370 
z"/>
<path fill="#456BB9" opacity="1.000000" stroke="none" 
	d="
M93.623283,134.750519 
	C92.307999,134.988831 90.886246,134.928116 89.037399,134.836487 
	C90.245811,134.687561 91.881310,134.569534 93.623283,134.750519 
z"/>
<path fill="#3286B1" opacity="1.000000" stroke="none" 
	d="
M152.371246,166.122162 
	C152.855255,167.113815 152.831879,168.349747 152.734528,170.043762 
	C152.189972,169.523254 151.719376,168.544693 151.165863,167.182861 
	C151.082947,166.799576 150.911102,166.967010 150.911102,166.967010 
	C151.228683,166.766815 151.546280,166.566635 152.371246,166.122162 
z"/>
<path fill="#20BBC1" opacity="1.000000" stroke="none" 
	d="
M230.686646,132.077271 
	C229.675476,131.892441 228.427399,131.501251 227.060547,130.864014 
	C228.111099,131.035599 229.280441,131.453247 230.686646,132.077271 
z"/>
<path fill="#456BB9" opacity="1.000000" stroke="none" 
	d="
M86.184273,143.335968 
	C86.337982,144.262955 86.317169,145.428436 86.081253,146.819122 
	C85.914017,145.887695 85.961884,144.731094 86.184273,143.335968 
z"/>
<path fill="#3286B1" opacity="1.000000" stroke="none" 
	d="
M223.529907,163.234528 
	C223.132477,162.623978 223.027618,161.733109 222.911560,160.393326 
	C223.363968,159.944626 223.827560,159.944809 224.635223,159.992737 
	C225.305130,160.799561 225.630997,161.558670 225.990173,162.626617 
	C225.289825,162.941696 224.556152,162.947937 223.529907,163.234528 
z"/>
<path fill="#2F99BC" opacity="1.000000" stroke="none" 
	d="
M113.693878,175.689758 
	C113.112801,175.882462 112.136253,176.016068 111.032944,175.932861 
	C111.703598,175.687576 112.501007,175.659119 113.693878,175.689758 
z"/>
<path fill="#3286B1" opacity="1.000000" stroke="none" 
	d="
M305.712341,175.621704 
	C305.123779,175.817871 304.130554,175.969452 303.005676,175.905090 
	C303.685272,175.651794 304.496460,175.614471 305.712341,175.621704 
z"/>
<path fill="#3286B1" opacity="1.000000" stroke="none" 
	d="
M167.170868,171.777679 
	C167.204620,171.073807 167.351303,170.091660 167.783676,168.980255 
	C167.807495,169.733795 167.545639,170.616608 167.170868,171.777679 
z"/>
<path fill="#456BB9" opacity="1.000000" stroke="none" 
	d="
M110.185165,134.775177 
	C109.841255,134.230835 109.573135,133.385071 109.449478,132.341721 
	C109.816284,132.920685 110.038612,133.697220 110.185165,134.775177 
z"/>
<path fill="#20BBC1" opacity="1.000000" stroke="none" 
	d="
M204.390900,246.333084 
	C204.821014,246.954147 205.338455,247.881409 205.816818,249.143951 
	C205.344559,248.532593 204.911377,247.585922 204.390900,246.333084 
z"/>
<path fill="#20BBC1" opacity="1.000000" stroke="none" 
	d="
M206.858032,251.384003 
	C207.588318,251.093323 208.404694,251.051422 209.629150,251.030151 
	C209.006180,251.244781 207.975159,251.438797 206.858032,251.384003 
z"/>
<path fill="#3286B1" opacity="1.000000" stroke="none" 
	d="
M257.943085,168.817810 
	C257.495728,169.155655 256.751984,169.641022 255.911118,169.896149 
	C256.424927,169.432373 257.035797,169.198853 257.943085,168.817810 
z"/>
<path fill="#456BB9" opacity="1.000000" stroke="none" 
	d="
M145.515930,150.845856 
	C144.991302,150.564163 144.583054,150.056351 144.115967,149.220154 
	C144.582169,149.467743 145.107239,150.043732 145.515930,150.845856 
z"/>
<path fill="#456BB9" opacity="1.000000" stroke="none" 
	d="
M103.316422,121.471863 
	C103.458206,122.003975 103.415215,122.705254 103.163300,123.698135 
	C103.013458,123.206841 103.072556,122.423943 103.316422,121.471863 
z"/>
<path fill="#3286B1" opacity="1.000000" stroke="none" 
	d="
M248.746994,169.152084 
	C249.064774,169.462540 249.296600,170.037140 249.390381,170.768036 
	C249.055237,170.421646 248.858124,169.918930 248.746994,169.152084 
z"/>
<path fill="#456BB9" opacity="1.000000" stroke="none" 
	d="
M87.481415,136.555786 
	C87.572922,137.091766 87.466789,137.779480 87.140976,138.746063 
	C87.042137,138.252472 87.162964,137.479996 87.481415,136.555786 
z"/>
<path fill="#456BB9" opacity="1.000000" stroke="none" 
	d="
M137.821823,149.548004 
	C137.542236,149.885010 136.985062,150.201218 136.250946,150.390259 
	C136.564056,150.017807 137.054153,149.772507 137.821823,149.548004 
z"/>
<path fill="#20C4C8" opacity="1.000000" stroke="none" 
	d="
M214.302597,223.962372 
	C214.427612,223.430267 214.815750,222.783829 215.481018,222.031570 
	C215.360687,222.566513 214.963211,223.207275 214.302597,223.962372 
z"/>
<path fill="#4D79D0" opacity="1.000000" stroke="none" 
	d="
M293.800842,151.921753 
	C293.434021,152.153503 292.898438,152.256805 292.197449,152.204285 
	C292.565399,151.963394 293.098755,151.878342 293.800842,151.921753 
z"/>
<path fill="#456BB9" opacity="1.000000" stroke="none" 
	d="
M102.940704,133.210266 
	C103.230148,133.542145 103.397659,134.047012 103.431633,134.726105 
	C103.138329,134.394623 102.978554,133.888962 102.940704,133.210266 
z"/>
<path fill="#3286B1" opacity="1.000000" stroke="none" 
	d="
M259.597534,165.951691 
	C259.584564,166.529099 259.302246,167.218826 258.759827,168.040146 
	C258.775848,167.469162 259.052002,166.766571 259.597534,165.951691 
z"/>
<path fill="#3286B1" opacity="1.000000" stroke="none" 
	d="
M291.256592,171.492615 
	C290.667511,171.451172 289.920013,171.151703 289.046692,170.561188 
	C289.646637,170.591614 290.372375,170.913101 291.256592,171.492615 
z"/>
<path fill="#3286B1" opacity="1.000000" stroke="none" 
	d="
M227.340179,165.227112 
	C227.806396,165.496552 228.307556,166.051331 228.818726,166.902847 
	C228.344193,166.637192 227.859650,166.074814 227.340179,165.227112 
z"/>
<path fill="#456BB9" opacity="1.000000" stroke="none" 
	d="
M150.866638,166.663177 
	C150.911102,166.967010 151.082947,166.799576 151.108994,166.766937 
	C150.904770,166.829834 150.674484,166.925354 150.109802,167.187912 
	C149.891388,166.757507 150.007385,166.160065 150.276306,165.388794 
	C150.560181,165.596436 150.691177,165.977890 150.866638,166.663177 
z"/>
<path fill="#4D79D0" opacity="1.000000" stroke="none" 
	d="
M278.523193,149.412811 
	C277.928040,149.432465 277.122314,149.218613 276.138672,148.732178 
	C276.744690,148.699493 277.528625,148.939392 278.523193,149.412811 
z"/>
<path fill="#456BB9" opacity="1.000000" stroke="none" 
	d="
M149.323669,137.503098 
	C148.749054,137.551834 148.009277,137.349579 147.094315,136.907272 
	C147.665573,136.862183 148.412048,137.057129 149.323669,137.503098 
z"/>
<path fill="#456BB9" opacity="1.000000" stroke="none" 
	d="
M104.487137,116.600967 
	C104.598022,117.114525 104.520500,117.774467 104.234512,118.701721 
	C104.116943,118.228470 104.207840,117.487907 104.487137,116.600967 
z"/>
<path fill="#456BB9" opacity="1.000000" stroke="none" 
	d="
M140.201538,180.243896 
	C140.385208,180.630737 140.410324,181.154480 140.266052,181.814178 
	C140.078781,181.427017 140.060898,180.903900 140.201538,180.243896 
z"/>
<path fill="#31B0D1" opacity="1.000000" stroke="none" 
	d="
M248.756546,176.248688 
	C248.332932,176.695999 247.578766,177.162064 246.465439,177.574997 
	C246.879517,177.103729 247.652756,176.685593 248.756546,176.248688 
z"/>
<path fill="#3286B1" opacity="1.000000" stroke="none" 
	d="
M249.159637,148.303940 
	C249.330338,148.696518 249.317963,149.294220 249.130646,149.996735 
	C248.962662,149.570709 248.969620,149.039886 249.159637,148.303940 
z"/>
<path fill="#20BBC1" opacity="1.000000" stroke="none" 
	d="
M234.713776,133.094879 
	C234.332245,133.242203 233.738632,133.225220 233.045349,133.027374 
	C233.464340,132.874542 233.983002,132.902557 234.713776,133.094879 
z"/>
<path fill="#20BBC1" opacity="1.000000" stroke="none" 
	d="
M182.799377,132.825775 
	C182.496597,133.113205 181.942551,133.318436 181.238251,133.389221 
	C181.574707,133.084381 182.061417,132.913971 182.799377,132.825775 
z"/>
<path fill="#2BB5CD" opacity="1.000000" stroke="none" 
	d="
M104.669891,191.907684 
	C104.297630,191.779221 103.717728,191.516006 103.042007,191.020889 
	C103.451546,191.116959 103.956902,191.444931 104.669891,191.907684 
z"/>
<path fill="#456BB9" opacity="1.000000" stroke="none" 
	d="
M144.746246,135.973755 
	C144.331314,136.071991 143.707947,135.985291 143.010864,135.685883 
	C143.470688,135.578400 144.004242,135.683624 144.746246,135.973755 
z"/>
<path fill="#2F99BC" opacity="1.000000" stroke="none" 
	d="
M296.756592,191.912292 
	C296.494415,192.033417 296.089203,192.047729 295.521362,191.936584 
	C295.776978,191.809235 296.195282,191.807358 296.756592,191.912292 
z"/>
<path fill="#3286B1" opacity="1.000000" stroke="none" 
	d="
M309.829468,174.497162 
	C309.536224,174.824005 308.964447,175.116638 308.216339,175.278351 
	C308.543640,174.919266 309.047302,174.691101 309.829468,174.497162 
z"/>
<path fill="#3286B1" opacity="1.000000" stroke="none" 
	d="
M249.935135,174.290588 
	C250.347198,174.415451 250.617188,174.905777 250.913391,175.608673 
	C250.551041,175.920486 250.162460,176.019775 249.473221,176.105347 
	C249.379395,175.613129 249.586227,175.134598 249.935135,174.290588 
z"/>
<path fill="#2F99BC" opacity="1.000000" stroke="none" 
	d="
M118.792862,174.438171 
	C118.506493,174.772568 117.944199,175.081528 117.207489,175.249084 
	C117.527695,174.876022 118.022324,174.644379 118.792862,174.438171 
z"/>
<path fill="#2F99BC" opacity="1.000000" stroke="none" 
	d="
M108.739838,175.011536 
	C108.328117,175.117126 107.697525,175.053589 106.991257,174.779663 
	C107.450714,174.660324 107.985840,174.751358 108.739838,175.011536 
z"/>
<path fill="#456BB9" opacity="1.000000" stroke="none" 
	d="
M146.829285,179.762619 
	C146.642929,179.369904 146.616531,178.840820 146.764221,178.175171 
	C146.955292,178.567810 146.972260,179.097031 146.829285,179.762619 
z"/>
<path fill="#456BB9" opacity="1.000000" stroke="none" 
	d="
M140.753220,208.189484 
	C141.107117,208.641800 141.358459,209.325256 141.534515,210.378387 
	C141.189713,209.972260 140.920181,209.196442 140.753220,208.189484 
z"/>
<path fill="#456BB9" opacity="1.000000" stroke="none" 
	d="
M110.493698,119.294701 
	C110.421646,118.753387 110.567940,118.025162 110.937065,117.113785 
	C111.010612,117.656357 110.861328,118.382072 110.493698,119.294701 
z"/>
<path fill="#000101" opacity="1.000000" stroke="none" 
	d="
M104.754028,145.406586 
	C105.187164,145.004044 105.468315,144.959183 105.749474,144.914337 
	C105.715546,145.313705 105.681618,145.713074 105.289490,146.290405 
	C104.821526,146.233673 104.711784,145.998962 104.754028,145.406586 
z"/>
<path fill="#000101" opacity="1.000000" stroke="none" 
	d="
M311.210938,146.229446 
	C310.870636,146.343170 310.530365,146.456879 310.190063,146.570587 
	C310.137726,146.320175 310.085388,146.069748 310.410889,145.817657 
	C310.929474,145.953796 311.070221,146.091614 311.210938,146.229446 
z"/>
<path fill="#000101" opacity="1.000000" stroke="none" 
	d="
M312.165710,145.281647 
	C312.267426,145.804611 311.998627,146.013535 311.470398,146.225952 
	C311.070221,146.091614 310.929474,145.953796 310.578613,145.607651 
	C310.331177,145.082977 310.426910,144.813995 310.844177,144.479065 
	C311.286835,144.566376 311.540985,144.766998 312.165710,145.281647 
z"/>
</svg>